<?xml version="1.0" encoding="utf-8"?>
<svg viewBox="0 -4.565 100 88.812" xmlns="http://www.w3.org/2000/svg">
  <defs>
    <clipPath id="clippath5" transform="">
      <path d="M 0 1920 L 1080 1920 L 1080 0 L 0 0 Z" style="fill: none; clip-rule: nonzero;"/>
    </clipPath>
  </defs>
  <g style="clip-path: url(#clippath5);" transform="matrix(0.471841, 0, 0, -0.474035, -331.03421, 104.63002)">
    <g transform="translate(849.084 109.0518)">
      <path d="M 0 0 C 2.661 0 4.818 -1.206 4.818 -2.693 C 4.818 -4.181 2.661 -5.387 0 -5.387 C -2.66 -5.387 -4.817 -4.181 -4.817 -2.693 C -4.817 -1.206 -2.66 0 0 0" style="fill: rgb(234, 184, 106); fill-opacity: 1;"/>
    </g>
  </g>
  <g style="clip-path: url(#clippath5);" transform="matrix(0.471841, 0, 0, -0.474035, -331.03421, 104.63002)">
    <g transform="translate(759.8213 112.71)">
      <path d="M 0 0 C 1.808 0 3.273 -0.819 3.273 -1.83 C 3.273 -2.841 1.808 -3.66 0 -3.66 C -1.808 -3.66 -3.273 -2.841 -3.273 -1.83 C -3.273 -0.819 -1.808 0 0 0" style="fill: rgb(234, 184, 106); fill-opacity: 1;"/>
    </g>
  </g>
  <g style="clip-path: url(#clippath5);" transform="matrix(0.471841, 0, 0, -0.474035, -331.03421, 104.63002)">
    <g transform="translate(773.9512 213.8486)">
      <path d="M 0 0 L 96.612 -10.497 L 91.765 -90.795 L -6.461 -71.874 Z" style="fill: rgb(67, 27, 16); fill-opacity: 1;"/>
    </g>
  </g>
  <g style="clip-path: url(#clippath5);" transform="matrix(0.471841, 0, 0, -0.474035, -331.03421, 104.63002)">
    <g transform="translate(773.2881 213.4414)">
      <path d="M 0 0 L -5.798 -71.467 C 3.753 -71.602 17.728 -76.572 27.257 -77.236 C 29.051 -77.364 34.131 -50.496 34.458 -48.626 C 35.549 -42.4 34.912 -36.461 33.458 -30.367 C 32.224 -25.187 30.601 -18.279 27.315 -14.134 C 24.102 -10.072 19.238 -6.686 14.529 -4.748 L 4.772 -0.733 L 0 0.001 Z" style="fill: rgb(112, 58, 32); fill-opacity: 1;"/>
    </g>
  </g>
  <g style="clip-path: url(#clippath5);" transform="matrix(0.471841, 0, 0, -0.474035, -331.03421, 104.63002)">
    <g transform="translate(773.2881 213.4414)">
      <path d="M 0 0 L -5.798 -71.467 C 3.753 -71.602 17.728 -76.572 27.257 -77.236 C 29.051 -77.364 34.131 -50.496 34.458 -48.626 C 35.549 -42.4 34.912 -36.461 33.458 -30.367 C 32.224 -25.187 30.601 -18.279 27.315 -14.134 C 24.102 -10.072 19.238 -6.686 14.529 -4.748 L 4.772 -0.733 L 0 0.001 L 0 0 Z" style="fill: none; stroke: rgb(51, 28, 21); stroke-opacity: 1; stroke-miterlimit: 0; stroke-width: 1px; stroke-dashoffset: 0px;"/>
    </g>
  </g>
  <g style="clip-path: url(#clippath5);" transform="matrix(0.471841, 0, 0, -0.474035, -331.03421, 104.63002)">
    <g transform="translate(864.6719 121.7744)">
      <path d="M 0 0 L 12.291 2.661 L 23.462 6.795 C 27.832 8.413 34.661 11.648 37.399 15.547 C 43.614 24.391 49.378 35.002 48.689 46.15 C 47.644 63.104 36.53 81.527 19.519 86.354 L 9.199 89.284 L -97.416 101.1 L -101.055 19.693 L -93.461 20.15 L -90.742 90.748 L 5.921 81.577 L 0 0.003 Z" style="fill: rgb(112, 58, 32); fill-opacity: 1;"/>
    </g>
  </g>
  <g style="clip-path: url(#clippath5);" transform="matrix(0.471841, 0, 0, -0.474035, -331.03421, 104.63002)">
    <g transform="translate(864.6348 121.752)">
      <path d="M 0 0 L 5.808 81.607 L 5.927 81.468 L -90.74 90.611 L -90.565 90.764 L -93.309 20.168 L -93.313 20.046 L -93.436 20.039 L -101.029 19.591 L -101.171 19.582 L -101.164 19.724 L -97.456 101.129 L -97.453 101.191 L -97.391 101.185 L 9.234 89.444 L 9.245 89.443 L 9.256 89.44 L 16.79 87.308 C 18.045 86.945 19.302 86.614 20.557 86.225 C 21.807 85.828 23.03 85.354 24.225 84.812 C 29.006 82.64 33.219 79.334 36.693 75.424 C 40.174 71.507 42.949 66.987 44.992 62.172 C 47.03 57.354 48.348 52.221 48.77 47.002 C 48.995 44.393 48.874 41.754 48.447 39.171 C 48.023 36.586 47.31 34.056 46.394 31.606 C 44.556 26.702 41.948 22.128 39.05 17.788 C 38.687 17.245 38.318 16.706 37.946 16.169 C 37.575 15.635 37.205 15.087 36.762 14.6 C 35.888 13.616 34.874 12.772 33.813 12.006 C 31.683 10.481 29.36 9.25 26.98 8.175 C 24.6 7.09 22.117 6.264 19.676 5.348 L 12.326 2.646 L 12.323 2.645 L 12.32 2.644 L 0.001 0.004 Z M 0.037 0.043 L 12.301 2.726 L 12.295 2.724 L 19.633 5.456 C 22.072 6.384 24.549 7.22 26.916 8.312 C 29.284 9.395 31.599 10.621 33.713 12.141 C 34.765 12.903 35.769 13.742 36.628 14.714 C 37.063 15.194 37.425 15.73 37.798 16.269 C 38.169 16.805 38.535 17.344 38.896 17.887 C 41.783 22.224 44.375 26.79 46.196 31.676 C 48.018 36.543 49.009 41.784 48.534 46.979 C 48.106 52.17 46.786 57.276 44.751 62.066 C 42.711 66.854 39.942 71.345 36.479 75.229 C 33.021 79.109 28.832 82.374 24.101 84.54 C 22.919 85.079 21.706 85.553 20.469 85.947 C 19.23 86.333 17.964 86.67 16.712 87.034 L 9.182 89.179 L 9.203 89.175 L -97.405 101.064 L -97.34 101.12 L -100.91 19.711 L -101.045 19.844 L -93.452 20.309 L -93.579 20.179 L -90.885 90.777 L -90.878 90.945 L -90.71 90.93 L 5.953 81.729 L 6.081 81.718 L 6.071 81.59 L 0.039 0.043 Z" style="fill: rgb(67, 27, 16); fill-opacity: 1;"/>
    </g>
  </g>
  <g style="clip-path: url(#clippath5);" transform="matrix(0.471841, 0, 0, -0.474035, -331.03421, 104.63002)">
    <g transform="translate(870.833 123.8145)">
      <path d="M 0 0 L -13.467 -67.7 L -62.512 -80.685 L -157.721 -54.425 L -167.501 22.176 L -67.973 -6.467 L -9.191 4.151 Z" style="fill: rgb(171, 81, 45); fill-opacity: 1;"/>
    </g>
  </g>
  <g style="clip-path: url(#clippath5);" transform="matrix(0.471841, 0, 0, -0.474035, -331.03421, 104.63002)">
    <g transform="translate(870.8281 123.8047)">
      <path d="M 0 0 L -9.2 4.124 L -9.176 4.121 L -67.928 -6.59 L -67.959 -6.596 L -67.989 -6.587 L -117.762 7.709 L -167.524 22.04 L -167.329 22.207 L -157.623 -54.404 L -157.68 -54.339 L -133.883 -60.925 L -110.076 -67.476 L -62.458 -80.555 L -62.523 -80.555 L -38 -74.036 L -13.465 -67.567 L -13.556 -67.664 L -6.795 -33.823 L 0.001 -0.002 Z M 0.038 0.02 L -6.618 -33.858 L -13.31 -67.714 L -13.324 -67.791 L -13.4 -67.812 L -37.924 -74.328 L -62.46 -80.796 L -62.493 -80.805 L -62.525 -80.796 L -110.116 -67.613 L -133.914 -61.033 L -157.723 -54.489 L -157.772 -54.476 L -157.779 -54.424 L -167.637 22.171 L -167.666 22.402 L -167.44 22.338 L -117.672 8.025 L -67.913 -6.322 L -67.975 -6.319 L -9.189 4.205 L -9.177 4.208 L -9.165 4.202 L 0.04 0.022 Z" style="fill: rgb(67, 27, 16); fill-opacity: 1;"/>
    </g>
  </g>
  <g style="clip-path: url(#clippath5);" transform="matrix(0.471841, 0, 0, -0.474035, -331.03421, 104.63002)">
    <g transform="translate(808.9004 43.8066)">
      <path d="M 0 0 L 48.466 12.308 L 61.293 78.086 L -2.067 68.568 Z" style="fill: rgb(171, 81, 45); fill-opacity: 1;"/>
    </g>
  </g>
  <g style="clip-path: url(#clippath5);" transform="matrix(0.471841, 0, 0, -0.474035, -331.03421, 104.63002)">
    <g transform="translate(808.8848 43.7842)">
      <path d="M 0 0 L -0.588 17.161 L -1.146 34.303 L -1.701 51.444 L -2.212 68.587 L -2.217 68.73 L -2.074 68.752 L 29.612 73.499 L 61.309 78.188 L 61.419 78.204 L 61.397 78.095 L 58.165 61.655 L 54.993 45.204 L 48.646 12.302 L 48.628 12.207 L 48.535 12.185 L 24.282 6.076 L 12.155 3.023 Z M 0.032 0.042 L 12.117 3.174 L 24.231 6.275 L 48.461 12.476 L 48.35 12.358 L 54.825 45.235 L 58.063 61.674 L 61.242 78.123 L 61.331 78.03 L 29.656 73.201 L -2.026 68.431 L -1.889 68.596 L -1.366 51.453 L -0.888 34.31 L -0.414 17.165 Z" style="fill: rgb(67, 27, 16); fill-opacity: 1;"/>
    </g>
  </g>
  <g style="clip-path: url(#clippath5);" transform="matrix(0.471841, 0, 0, -0.474035, -331.03421, 104.63002)">
    <g transform="translate(837.5205 50.8623)">
      <path d="M 0 0 L 10.016 2.761 L 22.102 67.003 L 9.174 66.223 Z" style="fill: rgb(112, 58, 32); fill-opacity: 1;"/>
    </g>
  </g>
  <g style="clip-path: url(#clippath5);" transform="matrix(0.471841, 0, 0, -0.474035, -331.03421, 104.63002)">
    <g transform="translate(837.5 50.8408)">
      <path d="M 0 0 L 1.091 8.311 L 2.207 16.593 L 4.448 33.155 L 6.754 49.709 L 9.075 66.261 L 9.091 66.37 L 9.199 66.376 L 22.131 67.11 L 22.241 67.117 L 22.221 67.009 C 21.207 61.656 20.161 56.31 19.173 50.953 L 16.204 34.882 C 15.204 29.527 14.246 24.164 13.206 18.817 L 10.135 2.766 L 10.124 2.712 L 10.071 2.697 C 6.728 1.781 3.373 0.905 0.024 0.007 Z M 0.04 0.046 C 3.369 0.984 6.691 1.944 10.025 2.865 L 9.962 2.797 L 12.935 18.867 C 13.909 24.227 14.965 29.571 15.979 34.923 L 19.055 50.974 C 20.081 56.324 21.051 61.685 22.051 67.04 L 22.142 66.937 L 9.216 66.108 L 9.34 66.224 L 7.067 49.665 L 4.779 33.108 L 2.427 16.562 L 1.245 8.289 Z" style="fill: rgb(67, 27, 16); fill-opacity: 1;"/>
    </g>
  </g>
  <g style="clip-path: url(#clippath5);" transform="matrix(0.471841, 0, 0, -0.474035, -331.03421, 104.63002)">
    <g transform="translate(819.8623 45.6846)">
      <path d="M 0 0 L 9.231 63.633 L -4.771 60.98 L -10.952 -2.511 Z" style="fill: rgb(112, 58, 32); fill-opacity: 1;"/>
    </g>
  </g>
  <g style="clip-path: url(#clippath5);" transform="matrix(0.471841, 0, 0, -0.474035, -331.03421, 104.63002)">
    <g transform="translate(819.875 45.6709)">
      <path d="M 0 0 L -10.946 -2.585 L -11.067 -2.614 L -11.056 -2.489 L -9.574 13.39 C -9.089 18.684 -8.548 23.972 -8.037 29.263 L -6.483 45.135 L -4.885 61.002 L -4.877 61.076 L -4.805 61.09 L 9.205 63.701 L 9.286 63.717 L 9.273 63.636 C 8.488 58.336 7.763 53.026 7.003 47.723 L 4.746 31.808 L 2.397 15.906 L 1.219 7.956 Z M -0.03 0.027 L 1.06 7.979 L 2.188 15.937 L 4.455 31.851 L 6.813 47.751 C 7.594 53.052 8.406 58.348 9.159 63.652 L 9.228 63.587 L -4.767 60.896 L -4.687 60.983 L -6.179 45.105 L -7.715 29.232 C -8.234 23.941 -8.724 18.648 -9.268 13.36 L -10.877 -2.506 L -10.986 -2.41 Z" style="fill: rgb(67, 27, 16); fill-opacity: 1;"/>
    </g>
  </g>
  <g style="clip-path: url(#clippath5);" transform="matrix(0.471841, 0, 0, -0.474035, -331.03421, 104.63002)">
    <g transform="translate(775.5771 51.6299)">
      <path d="M 0 0 L 4.615 62.937 L -10.032 66.491 L -14.598 3.748 Z" style="fill: rgb(112, 58, 32); fill-opacity: 1;"/>
    </g>
  </g>
  <g style="clip-path: url(#clippath5);" transform="matrix(0.471841, 0, 0, -0.474035, -331.03421, 104.63002)">
    <g transform="translate(775.5908 51.6113)">
      <path d="M 0 0 L -7.331 1.823 L -14.637 3.666 L -14.721 3.688 L -14.715 3.774 L -13.637 19.466 L -12.489 35.151 L -11.34 50.838 L -10.14 66.52 L -10.132 66.629 L -10.026 66.603 L 4.615 63.007 L 4.658 62.997 L 4.655 62.953 L 2.444 31.478 L 1.243 15.748 L 0.642 7.883 Z M -0.03 0.043 L 0.483 7.894 L 1.036 15.763 L 2.145 31.5 L 4.551 62.96 L 4.591 62.905 L -10.069 66.423 L -9.955 66.506 L -11.037 50.815 L -12.17 35.128 L -13.304 19.44 L -14.507 3.759 L -14.585 3.867 L -7.295 1.964 Z" style="fill: rgb(67, 27, 16); fill-opacity: 1;"/>
    </g>
  </g>
  <g style="clip-path: url(#clippath5);" transform="matrix(0.471841, 0, 0, -0.474035, -331.03421, 104.63002)">
    <g transform="translate(741.9746 124.2119)">
      <path d="M 0 0 L -13.295 3.373 L -12.951 -59.765 L -0.821 -63.004 Z" style="fill: rgb(112, 58, 32); fill-opacity: 1;"/>
    </g>
  </g>
  <g style="clip-path: url(#clippath5);" transform="matrix(0.471841, 0, 0, -0.474035, -331.03421, 104.63002)">
    <g transform="translate(741.9922 124.2246)">
      <path d="M 0 0 L -0.043 -7.89 L -0.113 -15.767 L -0.26 -31.519 L -0.694 -63.021 L -0.697 -63.207 L -0.875 -63.158 L -12.992 -59.869 L -13.062 -59.85 L -13.062 -59.777 L -13.104 -43.993 L -13.244 -28.209 L -13.374 -12.425 L -13.41 3.36 L -13.41 3.488 L -13.287 3.456 L -6.646 1.744 Z M -0.034 -0.026 L -6.683 1.604 L -13.337 3.265 L -13.214 3.361 L -13.078 -12.423 L -13.035 -28.208 L -13.003 -43.992 L -12.873 -59.776 L -12.943 -59.686 L -0.802 -62.881 L -0.982 -63.018 L -0.596 -31.514 L -0.331 -15.764 L -0.196 -7.888 Z" style="fill: rgb(67, 27, 16); fill-opacity: 1;"/>
    </g>
  </g>
  <g style="clip-path: url(#clippath5);" transform="matrix(0.471841, 0, 0, -0.474035, -331.03421, 104.63002)">
    <g transform="translate(749.6201 121.4375)">
      <path d="M 0 0 L -2.333 -10.225 L 1.96 -13.604 L -1.05 -17.896 L 6.067 -19.917 L 4.989 -14.228 L 10.02 -14.116 L 12.952 -3.798 Z" style="fill: rgb(229, 166, 45); fill-opacity: 1;"/>
    </g>
  </g>
  <g style="clip-path: url(#clippath5);" transform="matrix(0.471841, 0, 0, -0.474035, -331.03421, 104.63002)">
    <g transform="translate(749.6094 121.46)">
      <path d="M 0 0 L 3.271 -0.896 L 6.518 -1.814 L 9.765 -2.732 C 10.846 -3.041 11.931 -3.339 13.01 -3.656 L 13.171 -3.704 L 13.125 -3.865 L 11.669 -9.027 L 10.183 -14.181 L 10.15 -14.293 L 10.035 -14.295 L 5.005 -14.366 L 5.116 -14.229 L 6.139 -19.927 L 6.156 -20.024 L 6.061 -19.997 L 2.505 -18.979 L -1.06 -17.992 L -1.163 -17.964 L -1.102 -17.873 L 1.857 -13.546 L 1.885 -13.735 L -0.268 -12.054 L -2.409 -10.357 L -2.479 -10.301 L -2.459 -10.215 C -2.063 -8.512 -1.668 -6.81 -1.255 -5.111 L -0.638 -2.563 Z M 0.024 -0.042 L -0.506 -2.592 L -1.055 -5.156 C -1.42 -6.865 -1.804 -8.571 -2.185 -10.277 L -2.234 -10.135 L -0.083 -11.818 L 2.058 -13.517 L 2.162 -13.599 L 2.086 -13.705 L -0.974 -17.961 L -1.017 -17.842 L 2.535 -18.876 L 6.095 -19.878 L 6.018 -19.949 L 4.889 -14.271 L 4.862 -14.138 L 5 -14.133 L 10.029 -13.981 L 9.882 -14.095 L 11.326 -8.93 L 12.8 -3.772 L 12.915 -3.981 C 11.835 -3.666 10.762 -3.331 9.685 -3.007 L 6.456 -2.025 L 3.229 -1.044 Z" style="fill: rgb(171, 81, 45); fill-opacity: 1;"/>
    </g>
  </g>
  <g style="clip-path: url(#clippath5);" transform="matrix(0.471841, 0, 0, -0.474035, -331.03421, 104.63002)">
    <g transform="translate(701.5986 148.0244)">
      <path d="M 0 0 L 0.835 -13.313 L 107.588 -43.618 L 170.48 -30.711 L 171.423 -23.291 L 160.347 -18.991 L 103.241 -27.775 Z" style="fill: rgb(112, 58, 32); fill-opacity: 1;"/>
    </g>
  </g>
  <g style="clip-path: url(#clippath5);" transform="matrix(0.471841, 0, 0, -0.474035, -331.03421, 104.63002)">
    <g transform="translate(701.582 148.0449)">
      <path d="M 0 0 L 51.671 -13.78 L 77.489 -20.691 L 103.298 -27.641 L 103.231 -27.637 L 160.33 -18.889 L 160.364 -18.883 L 160.396 -18.896 L 171.473 -23.211 L 171.551 -23.241 L 171.54 -23.325 L 170.575 -30.744 L 170.566 -30.812 L 170.5 -30.825 L 139.053 -37.243 L 107.618 -43.724 L 107.598 -43.728 L 107.578 -43.722 L 54.187 -28.624 L 0.835 -13.39 L 0.793 -13.378 L 0.791 -13.335 L -0.002 0 Z M 0.037 -0.045 L 0.914 -13.327 L 0.87 -13.272 L 54.269 -28.347 L 107.626 -43.557 L 107.586 -43.556 L 139.03 -37.128 L 170.463 -30.638 L 170.387 -30.72 L 171.328 -23.298 L 171.396 -23.412 L 160.306 -19.131 L 160.37 -19.139 L 103.282 -27.955 L 103.248 -27.96 L 103.215 -27.951 L 77.404 -21.014 L 51.603 -14.038 L 0.036 -0.045 Z" style="fill: rgb(67, 27, 16); fill-opacity: 1;"/>
    </g>
  </g>
  <g style="clip-path: url(#clippath5);" transform="matrix(0.471841, 0, 0, -0.474035, -331.03421, 104.63002)">
    <g transform="translate(711.4463 150.667)">
      <path d="M 0 0 C -0.427 2.095 -1.018 4.536 0.641 5.913 C 2.102 7.126 5.542 6.498 6.437 4.796 C 6.197 7.939 6.766 15.407 11.09 10.022 C 7.037 15.067 16.856 21.807 20.845 13.663 C 22.01 15.626 26.146 15.209 28.053 14.604 C 28.043 13.812 28.521 12.749 28.533 12.262 C 29.862 17.61 32.909 18.307 37.406 15.017 C 37.236 13.572 37.391 13.534 37.903 12.396 C 38.707 15.476 39.276 18.745 43.23 18.736 C 45.951 18.729 51.266 16.54 50.358 13.361 C 53.847 18.285 65.5 17.357 65.021 10.436 C 67.359 16.33 72.028 19.831 78.258 15.339 C 78.035 13.422 79.153 11.866 79.939 10.086 C 79.081 18.558 99.873 16.9 95.632 6.004 C 98.93 6.228 104.326 9.92 106.58 6.883 C 108.976 3.655 104.927 -0.696 107.823 -3.973 C 109.486 -3.229 113.289 -0.593 114.881 -0.752 C 118.08 -1.075 117.065 -5.301 120.101 -5.425 C 122.944 -5.541 124.312 -1.466 127.925 -2.243 C 131.166 -2.939 132.355 -6.3 131.743 -9.343 C 134.334 -8.924 136.311 -6.569 139.059 -8.77 C 140.975 -10.304 142.068 -14.751 141.393 -17.007 C 146.081 -13.519 153.615 -17.976 148.341 -22.966 C 152.062 -26.316 144.607 -28.778 142.337 -29.216 C 140.114 -29.643 137.611 -29.807 135.445 -29.025 C 134.177 -28.566 129.966 -25.426 129.193 -25.723 C 126.792 -26.642 126.973 -26.024 125.177 -27.941 C 124.121 -29.07 123.908 -30.542 121.938 -30.176 C 118.361 -29.505 120.896 -26.825 117.759 -29.634 C 116.113 -31.103 115.81 -32.39 113.097 -31.704 C 110.042 -30.933 110.681 -28.841 107.552 -29.964 C 105.574 -30.672 106.328 -31.927 103.489 -31.177 C 98.072 -29.744 101.466 -31.456 97.429 -33.156 C 95.616 -33.918 94.344 -33.162 93.867 -31.266 C 93.198 -30.757 92.704 -30.31 91.89 -30.292 C 93.922 -33.898 89.707 -35.36 86.78 -34.772 C 82.859 -33.983 80.086 -32.212 79.063 -28.004 C 76.864 -35.309 66.186 -29.329 67.645 -23.627 C 64.321 -24.021 55.138 -26.822 55.738 -20.538 C 52.565 -22.751 52.062 -24.083 47.959 -22.811 C 43.824 -21.525 45.082 -20.063 43.087 -16.946 C 41.681 -20.031 38.572 -20.629 35.638 -19.79 C 31.727 -18.671 32.43 -16.999 31.236 -13.958 C 29.366 -20.63 17.486 -17.62 20.211 -11.598 C 17.313 -16.315 6.328 -14.297 6.213 -8.005 C 2.911 -10.723 -1.936 -13.944 -6.147 -11.279 C -9.009 -9.468 -8.976 -6.381 -7.575 -3.63 C -7.096 -2.686 -0.787 3.872 0 0" style="fill: rgb(229, 166, 45); fill-opacity: 1;"/>
    </g>
  </g>
  <g style="clip-path: url(#clippath5);" transform="matrix(0.471841, 0, 0, -0.474035, -331.03421, 104.63002)">
    <g transform="translate(711.4297 150.6631)">
      <path d="M 0 0 C -0.213 1.041 -0.457 2.087 -0.47 3.158 C -0.474 3.691 -0.415 4.233 -0.223 4.737 C -0.033 5.24 0.301 5.688 0.729 6.016 C 1.167 6.339 1.702 6.494 2.232 6.556 C 2.767 6.615 3.308 6.585 3.834 6.48 C 4.359 6.377 4.873 6.2 5.343 5.936 C 5.808 5.671 6.238 5.308 6.497 4.823 L 6.402 4.796 C 6.331 5.735 6.338 6.679 6.405 7.618 C 6.48 8.556 6.606 9.498 6.916 10.396 C 7.076 10.841 7.28 11.288 7.636 11.63 C 7.812 11.798 8.037 11.929 8.284 11.974 C 8.53 12.021 8.784 11.983 9.014 11.904 C 9.475 11.738 9.859 11.438 10.209 11.12 C 10.558 10.798 10.873 10.443 11.169 10.076 L 11.044 9.976 C 10.575 10.557 10.225 11.252 10.109 12 C 9.987 12.746 10.104 13.521 10.401 14.211 C 11.001 15.599 12.225 16.651 13.618 17.184 C 15.013 17.726 16.648 17.685 17.983 16.976 C 19.33 16.279 20.3 15.038 20.95 13.71 L 20.776 13.717 C 21.122 14.305 21.729 14.674 22.344 14.882 C 22.966 15.095 23.617 15.181 24.265 15.206 C 24.912 15.23 25.561 15.192 26.202 15.111 C 26.843 15.027 27.479 14.903 28.102 14.71 L 28.176 14.688 L 28.176 14.607 C 28.176 14.228 28.273 13.841 28.376 13.459 L 28.539 12.882 C 28.591 12.686 28.646 12.491 28.659 12.269 L 28.443 12.292 C 28.688 13.269 29.013 14.24 29.537 15.118 C 29.8 15.555 30.117 15.966 30.51 16.303 C 30.899 16.642 31.37 16.896 31.874 17.022 C 32.896 17.28 33.951 17.034 34.88 16.648 C 35.819 16.255 36.68 15.713 37.495 15.12 L 37.552 15.078 L 37.544 15.007 C 37.498 14.56 37.438 14.104 37.522 13.687 C 37.613 13.273 37.854 12.872 38.034 12.452 L 37.8 12.433 C 38.001 13.204 38.185 13.983 38.422 14.753 C 38.661 15.519 38.949 16.285 39.403 16.97 C 39.85 17.654 40.501 18.229 41.273 18.531 C 42.044 18.839 42.877 18.911 43.688 18.857 C 44.5 18.793 45.292 18.608 46.059 18.356 C 46.825 18.102 47.569 17.772 48.263 17.351 C 48.951 16.927 49.606 16.41 50.079 15.725 C 50.313 15.383 50.493 14.995 50.573 14.58 C 50.656 14.165 50.631 13.73 50.515 13.327 L 50.259 13.45 C 51.206 14.785 52.677 15.638 54.198 16.113 C 55.731 16.59 57.361 16.72 58.952 16.528 C 60.533 16.329 62.125 15.806 63.375 14.759 C 63.994 14.237 64.506 13.573 64.816 12.818 C 65.13 12.064 65.235 11.236 65.178 10.431 L 64.91 10.491 C 65.439 11.815 66.105 13.094 66.977 14.233 C 67.846 15.365 68.938 16.372 70.266 16.96 C 71.585 17.561 73.11 17.657 74.506 17.311 C 75.91 16.975 77.191 16.273 78.347 15.441 L 78.405 15.399 L 78.396 15.329 C 78.283 14.424 78.51 13.511 78.867 12.664 C 79.223 11.813 79.685 10.999 80.063 10.138 L 79.843 10.079 C 79.788 10.62 79.818 11.176 79.959 11.707 C 80.097 12.237 80.351 12.738 80.688 13.168 C 81.367 14.036 82.341 14.609 83.35 14.977 C 84.366 15.345 85.44 15.521 86.514 15.566 C 87.588 15.609 88.667 15.518 89.719 15.299 C 90.77 15.077 91.798 14.728 92.748 14.216 C 93.694 13.706 94.566 13.025 95.213 12.152 C 95.863 11.286 96.25 10.221 96.302 9.138 C 96.361 8.054 96.121 6.976 95.731 5.978 L 95.644 6.097 C 96.584 6.169 97.502 6.457 98.408 6.748 C 99.315 7.045 100.216 7.371 101.135 7.646 C 102.054 7.914 102.998 8.151 103.971 8.158 C 104.455 8.158 104.948 8.095 105.404 7.91 C 105.86 7.729 106.268 7.424 106.572 7.041 C 107.194 6.281 107.472 5.287 107.466 4.323 C 107.47 3.354 107.271 2.407 107.099 1.47 C 106.927 0.532 106.76 -0.415 106.828 -1.361 C 106.886 -2.306 107.253 -3.224 107.887 -3.927 L 107.816 -3.912 C 109.05 -3.325 110.213 -2.578 111.43 -1.937 C 112.037 -1.613 112.652 -1.301 113.294 -1.046 C 113.616 -0.919 113.944 -0.808 114.287 -0.738 C 114.458 -0.705 114.634 -0.684 114.812 -0.689 C 114.989 -0.7 115.158 -0.727 115.33 -0.767 C 116.021 -0.915 116.614 -1.383 116.989 -1.966 C 117.379 -2.545 117.624 -3.195 117.943 -3.798 C 118.252 -4.397 118.684 -4.976 119.325 -5.209 C 119.957 -5.441 120.676 -5.405 121.302 -5.16 C 121.937 -4.917 122.489 -4.501 123.025 -4.077 C 123.563 -3.651 124.088 -3.202 124.675 -2.832 C 125.258 -2.461 125.915 -2.176 126.613 -2.101 C 127.311 -2.019 128.013 -2.145 128.666 -2.38 C 129.32 -2.62 129.922 -3.005 130.407 -3.506 C 130.896 -4.005 131.268 -4.609 131.522 -5.255 C 132.031 -6.553 132.102 -7.994 131.832 -9.351 L 131.75 -9.267 C 133.119 -9.049 134.314 -8.259 135.681 -7.898 C 136.36 -7.72 137.104 -7.7 137.78 -7.938 C 138.452 -8.175 139.055 -8.577 139.543 -9.093 C 140.023 -9.614 140.382 -10.229 140.677 -10.865 C 140.969 -11.504 141.194 -12.17 141.362 -12.851 C 141.53 -13.53 141.644 -14.226 141.683 -14.927 C 141.718 -15.626 141.692 -16.339 141.493 -17.025 L 141.358 -16.931 C 142.368 -16.173 143.61 -15.735 144.87 -15.676 C 146.127 -15.615 147.416 -15.907 148.485 -16.595 C 149.017 -16.938 149.489 -17.39 149.814 -17.942 C 150.143 -18.492 150.3 -19.147 150.248 -19.788 C 150.2 -20.43 149.962 -21.041 149.633 -21.58 C 149.303 -22.123 148.884 -22.602 148.43 -23.035 L 148.428 -22.883 C 148.692 -23.122 148.939 -23.388 149.136 -23.694 C 149.331 -24 149.472 -24.357 149.485 -24.732 C 149.503 -25.107 149.388 -25.479 149.204 -25.794 C 149.02 -26.11 148.775 -26.383 148.511 -26.624 C 147.978 -27.106 147.365 -27.477 146.736 -27.801 C 146.106 -28.123 145.453 -28.396 144.789 -28.635 C 144.124 -28.872 143.449 -29.079 142.76 -29.242 C 142.067 -29.397 141.373 -29.507 140.67 -29.587 C 139.269 -29.74 137.832 -29.744 136.44 -29.433 C 136.093 -29.354 135.752 -29.257 135.413 -29.135 C 135.069 -29.002 134.764 -28.825 134.456 -28.651 C 133.845 -28.297 133.252 -27.921 132.655 -27.551 C 132.06 -27.181 131.464 -26.812 130.855 -26.47 C 130.552 -26.301 130.244 -26.137 129.93 -26.002 C 129.773 -25.937 129.612 -25.875 129.459 -25.845 C 129.385 -25.831 129.305 -25.826 129.266 -25.841 L 129.023 -25.931 C 128.692 -26.053 128.355 -26.165 128.017 -26.266 C 127.68 -26.37 127.336 -26.452 127.028 -26.579 C 126.416 -26.836 125.938 -27.37 125.453 -27.865 C 124.954 -28.348 124.63 -28.952 124.182 -29.526 C 123.956 -29.808 123.672 -30.075 123.315 -30.224 C 122.96 -30.373 122.571 -30.395 122.209 -30.354 C 121.499 -30.255 120.77 -30.065 120.19 -29.568 C 119.902 -29.325 119.706 -28.97 119.567 -28.663 C 119.532 -28.591 119.486 -28.528 119.471 -28.525 C 119.469 -28.518 119.418 -28.52 119.351 -28.552 C 119.219 -28.615 119.077 -28.72 118.943 -28.824 C 118.41 -29.259 117.872 -29.725 117.385 -30.21 C 116.89 -30.693 116.456 -31.265 115.821 -31.666 C 115.506 -31.862 115.138 -31.983 114.77 -32.021 C 114.4 -32.061 114.035 -32.03 113.681 -31.973 C 112.976 -31.851 112.275 -31.644 111.646 -31.278 C 111.332 -31.098 111.041 -30.879 110.77 -30.65 C 110.497 -30.424 110.243 -30.186 109.961 -30.021 C 109.4 -29.669 108.691 -29.77 108.041 -29.963 C 107.711 -30.064 107.386 -30.175 107.094 -30.335 C 106.797 -30.494 106.541 -30.704 106.287 -30.945 C 106.159 -31.064 106.024 -31.19 105.862 -31.298 C 105.701 -31.404 105.513 -31.481 105.324 -31.518 C 104.942 -31.59 104.574 -31.547 104.221 -31.487 C 103.866 -31.428 103.521 -31.333 103.184 -31.245 C 102.846 -31.157 102.506 -31.073 102.166 -30.997 C 101.826 -30.923 101.485 -30.854 101.146 -30.813 C 100.816 -30.779 100.452 -30.759 100.235 -30.919 C 100.021 -31.079 99.892 -31.451 99.674 -31.742 C 99.463 -32.046 99.194 -32.307 98.902 -32.523 C 98.61 -32.741 98.298 -32.922 97.977 -33.079 C 97.653 -33.235 97.328 -33.381 96.973 -33.479 C 96.62 -33.575 96.247 -33.624 95.872 -33.582 C 95.498 -33.542 95.129 -33.398 94.828 -33.168 C 94.219 -32.701 93.907 -31.986 93.731 -31.296 L 93.789 -31.383 C 93.487 -31.154 93.2 -30.917 92.893 -30.736 C 92.587 -30.553 92.253 -30.447 91.903 -30.442 L 92.044 -30.207 C 92.251 -30.579 92.425 -30.975 92.521 -31.398 C 92.618 -31.821 92.632 -32.276 92.508 -32.706 C 92.39 -33.136 92.136 -33.521 91.82 -33.822 C 91.504 -34.123 91.131 -34.354 90.74 -34.527 C 89.168 -35.218 87.361 -35.166 85.768 -34.691 C 84.156 -34.275 82.558 -33.585 81.322 -32.411 C 80.076 -31.249 79.311 -29.659 78.923 -28.034 L 79.233 -28.042 C 79.016 -28.765 78.685 -29.469 78.188 -30.057 C 77.695 -30.646 77.028 -31.098 76.293 -31.325 C 75.558 -31.558 74.774 -31.585 74.024 -31.476 C 73.272 -31.367 72.547 -31.127 71.866 -30.803 C 70.51 -30.147 69.309 -29.161 68.445 -27.916 C 68.018 -27.293 67.681 -26.599 67.501 -25.855 C 67.32 -25.114 67.31 -24.323 67.502 -23.578 L 67.68 -23.782 C 66.493 -23.938 65.301 -24.2 64.1 -24.39 C 62.898 -24.582 61.685 -24.739 60.456 -24.746 C 59.842 -24.748 59.224 -24.711 58.613 -24.593 C 58.005 -24.475 57.396 -24.272 56.868 -23.905 C 56.34 -23.545 55.935 -22.993 55.746 -22.383 C 55.55 -21.772 55.531 -21.131 55.589 -20.515 L 55.85 -20.667 C 55.282 -21.062 54.732 -21.482 54.179 -21.905 C 53.623 -22.323 53.063 -22.757 52.409 -23.068 C 51.759 -23.387 51.011 -23.508 50.298 -23.456 C 49.582 -23.411 48.892 -23.246 48.217 -23.052 C 47.547 -22.853 46.873 -22.623 46.243 -22.286 C 45.613 -21.958 45.025 -21.458 44.684 -20.809 C 44.339 -20.167 44.159 -19.49 43.9 -18.854 C 43.649 -18.215 43.341 -17.602 42.971 -17.023 L 43.246 -17.004 C 42.951 -17.647 42.551 -18.252 42.039 -18.75 C 41.529 -19.251 40.911 -19.64 40.244 -19.89 C 38.902 -20.394 37.427 -20.36 36.064 -20.039 C 35.381 -19.871 34.714 -19.658 34.075 -19.345 C 33.442 -19.035 32.843 -18.573 32.472 -17.947 C 32.095 -17.324 31.928 -16.631 31.745 -15.966 C 31.567 -15.297 31.378 -14.638 31.127 -13.999 L 31.382 -13.986 C 31.185 -14.69 30.851 -15.363 30.377 -15.928 C 29.906 -16.494 29.304 -16.944 28.642 -17.256 C 27.311 -17.882 25.789 -17.988 24.365 -17.729 C 22.948 -17.461 21.543 -16.824 20.588 -15.691 C 20.117 -15.128 19.795 -14.426 19.726 -13.687 C 19.651 -12.947 19.823 -12.205 20.125 -11.543 L 20.322 -11.647 C 19.919 -12.303 19.347 -12.845 18.696 -13.242 C 18.044 -13.642 17.321 -13.908 16.582 -14.073 C 15.098 -14.397 13.55 -14.341 12.079 -14 C 10.613 -13.654 9.19 -13.013 8.054 -12 C 7.489 -11.493 7.005 -10.889 6.669 -10.203 C 6.331 -9.521 6.152 -8.759 6.141 -7.998 L 6.284 -8.064 C 5.238 -8.923 4.152 -9.738 2.994 -10.444 C 1.837 -11.146 0.602 -11.749 -0.721 -12.084 C -2.035 -12.423 -3.458 -12.453 -4.756 -12.006 C -6.033 -11.557 -7.234 -10.739 -7.922 -9.542 C -8.264 -8.948 -8.462 -8.277 -8.519 -7.599 C -8.578 -6.918 -8.504 -6.232 -8.344 -5.572 C -8.183 -4.912 -7.937 -4.275 -7.632 -3.67 C -7.474 -3.358 -7.24 -3.109 -7.022 -2.851 C -6.8 -2.596 -6.568 -2.349 -6.332 -2.106 C -5.381 -1.146 -4.364 -0.24 -3.221 0.487 C -2.646 0.836 -2.031 1.173 -1.346 1.236 C -1.009 1.266 -0.641 1.176 -0.398 0.923 C -0.154 0.677 -0.036 0.34 0.031 0.01 L 0 0 C -0.068 0.326 -0.188 0.656 -0.425 0.893 C -0.659 1.135 -1.012 1.22 -1.342 1.189 C -2.012 1.124 -2.622 0.788 -3.19 0.438 C -4.325 -0.291 -5.335 -1.2 -6.277 -2.162 C -6.513 -2.404 -6.741 -2.651 -6.962 -2.905 C -7.176 -3.163 -7.409 -3.416 -7.555 -3.711 C -7.854 -4.312 -8.095 -4.945 -8.251 -5.598 C -8.568 -6.894 -8.506 -8.327 -7.82 -9.488 C -7.146 -10.65 -5.965 -11.447 -4.711 -11.881 C -3.439 -12.313 -2.05 -12.276 -0.757 -11.938 C 0.543 -11.605 1.764 -11.007 2.91 -10.308 C 4.057 -9.604 5.135 -8.79 6.174 -7.932 L 6.314 -7.816 L 6.318 -7.998 C 6.331 -8.734 6.506 -9.467 6.833 -10.126 C 7.159 -10.786 7.63 -11.371 8.181 -11.862 C 9.289 -12.846 10.686 -13.473 12.126 -13.809 C 13.57 -14.14 15.091 -14.19 16.537 -13.869 C 17.257 -13.707 17.958 -13.445 18.583 -13.06 C 19.208 -12.676 19.752 -12.157 20.133 -11.533 L 20.33 -11.639 C 20.043 -12.275 19.885 -12.977 19.956 -13.667 C 20.022 -14.357 20.323 -15.012 20.771 -15.544 C 21.676 -16.615 23.036 -17.234 24.411 -17.489 C 25.792 -17.737 27.265 -17.627 28.532 -17.026 C 29.163 -16.727 29.731 -16.298 30.176 -15.762 C 30.621 -15.227 30.937 -14.589 31.123 -13.916 L 31.23 -13.53 L 31.379 -13.903 C 31.637 -14.555 31.832 -15.229 32.012 -15.897 C 32.195 -16.562 32.364 -17.235 32.712 -17.804 C 33.055 -18.376 33.598 -18.795 34.204 -19.091 C 34.811 -19.388 35.472 -19.598 36.133 -19.758 C 37.454 -20.066 38.872 -20.088 40.138 -19.608 C 40.768 -19.37 41.347 -19.005 41.824 -18.533 C 42.304 -18.062 42.682 -17.491 42.961 -16.876 L 43.08 -16.614 L 43.236 -16.857 C 43.618 -17.45 43.939 -18.084 44.198 -18.739 C 44.464 -19.39 44.649 -20.067 44.969 -20.654 C 45.283 -21.244 45.801 -21.685 46.4 -21.997 C 46.999 -22.315 47.649 -22.537 48.313 -22.731 C 48.973 -22.922 49.645 -23.082 50.319 -23.123 C 50.993 -23.171 51.663 -23.062 52.267 -22.769 C 52.873 -22.48 53.424 -22.059 53.977 -21.641 C 54.529 -21.221 55.085 -20.795 55.659 -20.396 L 55.955 -20.191 L 55.921 -20.549 C 55.865 -21.136 55.886 -21.734 56.063 -22.282 C 56.234 -22.832 56.586 -23.311 57.059 -23.636 C 57.531 -23.966 58.098 -24.157 58.677 -24.27 C 59.258 -24.382 59.856 -24.419 60.455 -24.417 C 61.654 -24.411 62.854 -24.257 64.047 -24.066 C 65.243 -23.879 66.423 -23.619 67.642 -23.458 L 67.881 -23.427 L 67.82 -23.662 C 67.641 -24.353 67.649 -25.085 67.819 -25.781 C 67.987 -26.478 68.306 -27.138 68.715 -27.733 C 69.539 -28.925 70.701 -29.882 72.007 -30.512 C 72.661 -30.824 73.357 -31.054 74.07 -31.157 C 74.782 -31.261 75.517 -31.234 76.195 -31.019 C 76.875 -30.809 77.483 -30.396 77.941 -29.852 C 78.401 -29.306 78.717 -28.644 78.926 -27.952 L 79.098 -27.38 L 79.236 -27.96 C 79.614 -29.546 80.351 -31.067 81.542 -32.18 C 82.724 -33.305 84.267 -33.977 85.849 -34.386 C 86.243 -34.488 86.65 -34.582 87.047 -34.65 C 87.445 -34.715 87.851 -34.741 88.256 -34.732 C 89.064 -34.713 89.878 -34.567 90.611 -34.241 C 91.336 -33.923 91.999 -33.375 92.204 -32.622 C 92.419 -31.872 92.16 -31.057 91.77 -30.364 L 91.635 -30.126 L 91.91 -30.129 C 92.312 -30.134 92.716 -30.264 93.052 -30.467 C 93.391 -30.668 93.683 -30.911 93.979 -31.135 L 94.022 -31.168 L 94.036 -31.222 C 94.2 -31.876 94.496 -32.524 95.017 -32.921 C 95.533 -33.327 96.247 -33.365 96.89 -33.18 C 97.211 -33.092 97.531 -32.951 97.839 -32.802 C 98.147 -32.65 98.444 -32.479 98.716 -32.275 C 98.986 -32.074 99.228 -31.839 99.418 -31.565 C 99.515 -31.429 99.598 -31.283 99.686 -31.129 C 99.774 -30.978 99.873 -30.801 100.05 -30.67 C 100.228 -30.54 100.44 -30.497 100.627 -30.485 C 100.817 -30.474 101.001 -30.487 101.181 -30.507 C 101.539 -30.55 101.887 -30.621 102.232 -30.697 C 102.923 -30.841 103.603 -31.062 104.272 -31.185 C 104.608 -31.242 104.951 -31.276 105.262 -31.217 C 105.576 -31.163 105.821 -30.966 106.076 -30.721 C 106.33 -30.479 106.621 -30.238 106.945 -30.066 C 107.27 -29.89 107.612 -29.773 107.953 -29.67 C 108.297 -29.569 108.654 -29.489 109.027 -29.481 C 109.398 -29.469 109.792 -29.561 110.114 -29.757 C 110.439 -29.948 110.699 -30.196 110.966 -30.417 C 111.23 -30.641 111.503 -30.845 111.798 -31.015 C 112.386 -31.356 113.053 -31.556 113.729 -31.673 C 114.399 -31.789 115.101 -31.767 115.662 -31.407 C 116.225 -31.056 116.665 -30.492 117.168 -29.997 C 117.416 -29.743 117.684 -29.504 117.946 -29.273 C 118.21 -29.04 118.475 -28.808 118.756 -28.586 C 118.899 -28.477 119.039 -28.367 119.225 -28.278 C 119.313 -28.241 119.449 -28.181 119.609 -28.259 C 119.752 -28.342 119.788 -28.447 119.835 -28.527 C 119.985 -28.856 120.138 -29.129 120.389 -29.348 C 120.882 -29.778 121.574 -29.972 122.24 -30.063 C 122.572 -30.102 122.907 -30.08 123.203 -29.957 C 123.499 -29.835 123.745 -29.609 123.958 -29.347 C 124.375 -28.817 124.73 -28.171 125.248 -27.672 C 125.492 -27.417 125.738 -27.164 126.007 -26.926 C 126.273 -26.689 126.575 -26.465 126.92 -26.325 C 127.263 -26.186 127.604 -26.107 127.938 -26.005 C 128.272 -25.906 128.603 -25.798 128.929 -25.678 L 129.181 -25.585 C 129.311 -25.547 129.411 -25.565 129.509 -25.581 C 129.699 -25.62 129.868 -25.687 130.034 -25.757 C 130.365 -25.899 130.677 -26.067 130.985 -26.24 C 131.601 -26.587 132.197 -26.959 132.793 -27.331 C 133.389 -27.703 133.98 -28.08 134.583 -28.432 C 134.885 -28.604 135.188 -28.779 135.502 -28.9 C 135.822 -29.017 136.158 -29.113 136.494 -29.19 C 137.848 -29.497 139.259 -29.499 140.643 -29.351 C 141.334 -29.273 142.029 -29.166 142.706 -29.016 C 143.384 -28.857 144.054 -28.655 144.711 -28.421 C 145.367 -28.187 146.014 -27.92 146.634 -27.604 C 147.252 -27.287 147.852 -26.925 148.363 -26.465 C 148.865 -26.015 149.301 -25.413 149.271 -24.742 C 149.245 -24.073 148.789 -23.492 148.287 -23.038 L 148.204 -22.963 L 148.285 -22.886 C 148.73 -22.463 149.14 -21.998 149.458 -21.476 C 149.776 -20.957 150.002 -20.376 150.049 -19.773 C 150.1 -19.172 149.954 -18.562 149.646 -18.041 C 149.341 -17.519 148.891 -17.085 148.381 -16.753 C 147.354 -16.088 146.1 -15.799 144.877 -15.856 C 143.651 -15.912 142.444 -16.335 141.461 -17.07 L 141.252 -17.226 L 141.325 -16.976 C 141.517 -16.321 141.546 -15.622 141.512 -14.936 C 141.475 -14.247 141.364 -13.562 141.2 -12.891 C 141.035 -12.22 140.813 -11.562 140.527 -10.934 C 140.239 -10.309 139.888 -9.705 139.425 -9.201 C 138.959 -8.707 138.368 -8.312 137.729 -8.086 C 137.084 -7.857 136.378 -7.873 135.716 -8.046 C 134.385 -8.391 133.179 -9.186 131.771 -9.408 L 131.669 -9.425 L 131.689 -9.323 C 131.956 -7.991 131.89 -6.574 131.395 -5.306 C 131.146 -4.674 130.784 -4.084 130.312 -3.599 C 129.841 -3.111 129.257 -2.736 128.62 -2.501 C 127.985 -2.271 127.298 -2.146 126.625 -2.226 C 125.951 -2.296 125.313 -2.571 124.738 -2.935 C 124.161 -3.298 123.637 -3.743 123.097 -4.17 C 122.559 -4.595 121.996 -5.017 121.341 -5.268 C 120.69 -5.519 119.946 -5.558 119.284 -5.312 C 118.954 -5.187 118.66 -4.974 118.426 -4.714 C 118.191 -4.453 118.008 -4.153 117.848 -3.848 C 117.525 -3.236 117.282 -2.589 116.902 -2.023 C 116.536 -1.453 115.971 -1.01 115.305 -0.867 C 114.641 -0.671 113.963 -0.902 113.332 -1.146 C 112.697 -1.4 112.085 -1.713 111.48 -2.037 C 110.268 -2.68 109.112 -3.426 107.864 -4.023 L 107.824 -4.043 L 107.793 -4.008 C 107.14 -3.289 106.757 -2.337 106.697 -1.371 C 106.625 -0.402 106.793 0.556 106.964 1.494 C 107.134 2.434 107.328 3.374 107.321 4.322 C 107.325 5.266 107.055 6.218 106.455 6.947 C 106.163 7.312 105.779 7.598 105.346 7.769 C 104.912 7.943 104.438 8.004 103.97 8.003 C 103.023 7.994 102.091 7.76 101.18 7.49 C 100.267 7.216 99.368 6.889 98.459 6.588 C 97.549 6.294 96.626 6 95.653 5.922 L 95.516 5.911 L 95.565 6.041 C 95.947 7.023 96.178 8.077 96.117 9.128 C 96.064 10.177 95.69 11.201 95.059 12.04 C 94.431 12.884 93.58 13.546 92.652 14.043 C 91.722 14.541 90.709 14.883 89.675 15.099 C 87.609 15.514 85.411 15.48 83.422 14.772 C 82.439 14.412 81.504 13.854 80.862 13.03 C 80.211 12.214 79.952 11.138 80.07 10.103 L 80.155 9.352 L 79.85 10.044 C 79.476 10.891 79.012 11.703 78.646 12.573 C 78.465 13.008 78.31 13.459 78.217 13.928 C 78.124 14.396 78.098 14.881 78.153 15.357 L 78.203 15.245 C 77.063 16.062 75.806 16.743 74.445 17.066 C 73.093 17.398 71.637 17.301 70.369 16.722 C 69.095 16.155 68.036 15.18 67.188 14.07 C 66.339 12.955 65.686 11.695 65.167 10.389 L 64.837 9.561 L 64.898 10.45 C 64.952 11.221 64.85 12.002 64.553 12.71 C 64.259 13.42 63.777 14.044 63.188 14.539 C 61.997 15.534 60.454 16.044 58.914 16.232 C 57.366 16.416 55.774 16.285 54.285 15.828 C 52.806 15.37 51.393 14.547 50.492 13.283 L 49.974 12.555 L 50.235 13.406 C 50.461 14.138 50.284 14.937 49.843 15.564 C 49.407 16.201 48.781 16.701 48.115 17.113 C 47.444 17.522 46.719 17.846 45.971 18.097 C 45.223 18.345 44.447 18.526 43.666 18.59 C 42.889 18.644 42.088 18.572 41.369 18.287 C 40.647 18.005 40.044 17.478 39.617 16.826 C 39.184 16.177 38.899 15.433 38.663 14.678 C 38.428 13.921 38.242 13.145 38.039 12.37 L 37.951 12.035 L 37.806 12.351 L 37.519 12.97 C 37.424 13.178 37.328 13.397 37.279 13.637 C 37.187 14.119 37.254 14.583 37.301 15.036 L 37.35 14.923 C 36.547 15.511 35.699 16.045 34.787 16.431 C 33.884 16.809 32.876 17.038 31.929 16.8 C 30.978 16.57 30.225 15.844 29.728 15.003 C 29.22 14.156 28.897 13.203 28.654 12.24 L 28.477 11.539 L 28.439 12.264 C 28.43 12.441 28.379 12.636 28.328 12.825 L 28.166 13.403 C 28.063 13.791 27.961 14.188 27.961 14.611 L 28.036 14.508 C 27.432 14.697 26.804 14.821 26.174 14.904 C 25.543 14.986 24.905 15.025 24.271 15.002 C 23.638 14.979 23.003 14.896 22.408 14.693 C 21.818 14.494 21.26 14.149 20.945 13.617 L 20.853 13.459 L 20.772 13.624 C 20.137 14.93 19.193 16.137 17.896 16.81 C 16.611 17.495 15.036 17.54 13.681 17.018 C 12.327 16.505 11.136 15.481 10.557 14.146 C 10.27 13.482 10.157 12.741 10.272 12.027 C 10.382 11.312 10.715 10.643 11.169 10.077 L 11.044 9.977 C 10.751 10.34 10.443 10.691 10.104 11.009 C 9.765 11.321 9.392 11.611 8.965 11.767 C 8.753 11.842 8.526 11.875 8.31 11.835 C 8.093 11.796 7.894 11.684 7.73 11.529 C 7.401 11.218 7.197 10.787 7.04 10.354 C 6.732 9.476 6.601 8.54 6.521 7.61 C 6.449 6.678 6.438 5.737 6.503 4.805 L 6.52 4.563 L 6.407 4.777 C 6.164 5.239 5.749 5.595 5.296 5.855 C 4.839 6.117 4.334 6.294 3.816 6.398 C 3.299 6.504 2.765 6.537 2.24 6.48 C 1.719 6.423 1.193 6.272 0.769 5.963 C 0.349 5.646 0.021 5.21 -0.168 4.717 C -0.359 4.224 -0.421 3.688 -0.421 3.16 C -0.413 2.096 -0.176 1.05 0.031 0.008 L -0.001 0.001 Z" style="fill: rgb(171, 81, 45); fill-opacity: 1;"/>
    </g>
  </g>
  <g style="clip-path: url(#clippath5);" transform="matrix(0.471841, 0, 0, -0.474035, -331.03421, 104.63002)">
    <g transform="translate(716.6504 158.8154)">
      <path d="M 0 0 C 3.814 -1.083 6.233 -4.332 5.403 -7.257 C 4.573 -10.182 0.808 -11.675 -3.008 -10.592 C -6.822 -9.509 -9.241 -6.26 -8.411 -3.335 C -7.581 -0.41 -3.815 1.083 0 0" style="fill: rgb(229, 166, 45); fill-opacity: 1;"/>
    </g>
  </g>
  <g style="clip-path: url(#clippath5);" transform="matrix(0.471841, 0, 0, -0.474035, -331.03421, 104.63002)">
    <g transform="translate(716.6504 158.8154)">
      <path d="M 0 0 C 3.814 -1.083 6.233 -4.332 5.403 -7.257 C 4.573 -10.182 0.808 -11.675 -3.008 -10.592 C -6.822 -9.509 -9.241 -6.26 -8.411 -3.335 C -7.581 -0.41 -3.815 1.083 0 0 Z" style="fill: none; stroke: rgb(171, 81, 45); stroke-opacity: 1; stroke-miterlimit: 4; stroke-width: 1px; stroke-dashoffset: 0px;"/>
    </g>
  </g>
  <g style="clip-path: url(#clippath5);" transform="matrix(0.471841, 0, 0, -0.474035, -331.03421, 104.63002)">
    <g transform="translate(749.7178 159.6289)">
      <path d="M 0 0 C -0.902 -3.178 -4.005 -5.082 -6.928 -4.252 C -9.852 -3.422 -11.491 -0.172 -10.589 3.007 C -9.686 6.187 -6.583 8.091 -3.659 7.261 C -0.736 6.431 0.903 3.181 0 0" style="fill: rgb(253, 185, 19); fill-opacity: 1;"/>
    </g>
  </g>
  <g style="clip-path: url(#clippath5);" transform="matrix(0.471841, 0, 0, -0.474035, -331.03421, 104.63002)">
    <g transform="translate(749.7178 159.6289)">
      <path d="M 0 0 C -0.902 -3.178 -4.005 -5.082 -6.928 -4.252 C -9.852 -3.422 -11.491 -0.172 -10.589 3.007 C -9.686 6.187 -6.583 8.091 -3.659 7.261 C -0.736 6.431 0.903 3.181 0 0 Z" style="fill: none; stroke: rgb(171, 81, 45); stroke-opacity: 1; stroke-miterlimit: 4; stroke-width: 1px; stroke-dashoffset: 0px;"/>
    </g>
  </g>
  <g style="clip-path: url(#clippath5);" transform="matrix(0.471841, 0, 0, -0.474035, -331.03421, 104.63002)">
    <g transform="translate(775.8193 160.4268)">
      <path d="M 0 0 C -0.865 -3.051 -4.558 -4.676 -8.246 -3.629 C -11.933 -2.581 -14.22 0.741 -13.354 3.792 C -12.486 6.844 -8.796 8.469 -5.108 7.422 C -1.42 6.375 0.867 3.052 0 0" style="fill: rgb(253, 185, 19); fill-opacity: 1;"/>
    </g>
  </g>
  <g style="clip-path: url(#clippath5);" transform="matrix(0.471841, 0, 0, -0.474035, -331.03421, 104.63002)">
    <g transform="translate(775.8037 160.4326)">
      <path d="M 0 0 C 0.218 0.8 0.228 1.654 0.021 2.454 C -0.187 3.253 -0.58 3.995 -1.093 4.633 C -2.123 5.911 -3.571 6.805 -5.14 7.25 C -6.703 7.685 -8.413 7.682 -9.938 7.105 C -10.696 6.816 -11.406 6.389 -11.986 5.82 C -12.564 5.252 -13.012 4.547 -13.248 3.762 C -13.482 2.982 -13.517 2.134 -13.328 1.332 C -13.147 0.528 -12.776 -0.23 -12.27 -0.881 C -11.263 -2.2 -9.767 -3.076 -8.19 -3.499 C -6.616 -3.93 -4.91 -3.92 -3.363 -3.371 C -2.592 -3.096 -1.867 -2.672 -1.271 -2.1 C -0.674 -1.528 -0.234 -0.796 0 0 M 0.033 -0.009 C -0.407 -1.637 -1.728 -2.934 -3.286 -3.568 C -4.854 -4.222 -6.648 -4.247 -8.269 -3.767 C -9.888 -3.285 -11.352 -2.293 -12.362 -0.951 C -12.859 -0.276 -13.247 0.486 -13.443 1.306 C -13.637 2.124 -13.648 2.991 -13.425 3.814 C -13.208 4.632 -12.773 5.4 -12.175 6.009 C -11.58 6.621 -10.845 7.091 -10.053 7.401 C -8.463 8.028 -6.673 8.06 -5.041 7.583 C -3.414 7.125 -1.903 6.148 -0.916 4.767 C 0.074 3.404 0.517 1.606 0.033 -0.009" style="fill: rgb(171, 81, 45); fill-opacity: 1;"/>
    </g>
  </g>
  <g style="clip-path: url(#clippath5);" transform="matrix(0.471841, 0, 0, -0.474035, -331.03421, 104.63002)">
    <g transform="translate(762.8584 127.043)">
      <path d="M 0 0 C -0.759 -2.671 -3.744 -4.162 -6.668 -3.332 C -9.591 -2.502 -11.348 0.336 -10.59 3.007 C -9.831 5.677 -6.846 7.167 -3.923 6.338 C -0.999 5.508 0.758 2.671 0 0" style="fill: rgb(229, 166, 45); fill-opacity: 1;"/>
    </g>
  </g>
  <g style="clip-path: url(#clippath5);" transform="matrix(0.471841, 0, 0, -0.474035, -331.03421, 104.63002)">
    <g transform="translate(762.8584 127.043)">
      <path d="M 0 0 C -0.759 -2.671 -3.744 -4.162 -6.668 -3.332 C -9.591 -2.502 -11.348 0.336 -10.59 3.007 C -9.831 5.677 -6.846 7.167 -3.923 6.338 C -0.999 5.508 0.758 2.671 0 0 Z" style="fill: none; stroke: rgb(171, 81, 45); stroke-opacity: 1; stroke-miterlimit: 4; stroke-width: 1px; stroke-dashoffset: 0px;"/>
    </g>
  </g>
  <g style="clip-path: url(#clippath5);" transform="matrix(0.471841, 0, 0, -0.474035, -331.03421, 104.63002)">
    <g transform="translate(814.3545 117.3945)">
      <path d="M 0 0 C -0.542 -1.906 -3.042 -2.868 -5.586 -2.146 C -8.127 -1.425 -9.75 0.708 -9.209 2.614 C -8.667 4.522 -6.166 5.483 -3.625 4.762 C -1.081 4.039 0.542 1.909 0 0" style="fill: rgb(229, 166, 45); fill-opacity: 1;"/>
    </g>
  </g>
  <g style="clip-path: url(#clippath5);" transform="matrix(0.471841, 0, 0, -0.474035, -331.03421, 104.63002)">
    <g transform="translate(814.335 117.4014)">
      <path d="M 0 0 C 0.147 0.528 0.12 1.099 -0.058 1.611 C -0.237 2.125 -0.54 2.587 -0.91 2.978 C -1.656 3.759 -2.622 4.292 -3.657 4.59 C -4.682 4.868 -5.797 4.919 -6.82 4.614 C -7.329 4.461 -7.815 4.223 -8.221 3.881 C -8.622 3.537 -8.941 3.099 -9.104 2.582 C -9.258 2.079 -9.263 1.515 -9.104 0.997 C -8.951 0.478 -8.669 -0.004 -8.304 -0.407 C -7.58 -1.229 -6.567 -1.743 -5.53 -2.017 C -4.489 -2.293 -3.384 -2.33 -2.339 -2.06 C -1.819 -1.92 -1.318 -1.687 -0.895 -1.343 C -0.473 -1 -0.151 -0.529 0 0 M 0.032 -0.011 C -0.117 -0.544 -0.432 -1.026 -0.837 -1.409 C -1.244 -1.793 -1.745 -2.074 -2.275 -2.262 C -3.344 -2.646 -4.531 -2.605 -5.606 -2.285 C -6.684 -1.955 -7.662 -1.328 -8.392 -0.483 C -8.748 -0.056 -9.047 0.428 -9.218 0.963 C -9.382 1.499 -9.427 2.079 -9.279 2.639 C -9.139 3.185 -8.823 3.699 -8.396 4.082 C -7.972 4.468 -7.456 4.745 -6.914 4.917 C -5.825 5.267 -4.646 5.241 -3.556 4.922 C -2.477 4.615 -1.45 4.008 -0.743 3.123 C -0.392 2.683 -0.113 2.181 0.031 1.639 C 0.175 1.099 0.187 0.523 0.032 -0.011" style="fill: rgb(171, 81, 45); fill-opacity: 1;"/>
    </g>
  </g>
  <g style="clip-path: url(#clippath5);" transform="matrix(0.471841, 0, 0, -0.474035, -331.03421, 104.63002)">
    <g transform="translate(836.1094 120.4248)">
      <path d="M 0 0 C -0.722 -2.545 -3.267 -4.05 -5.683 -3.364 C -8.099 -2.679 -9.472 -0.062 -8.749 2.483 C -8.028 5.024 -5.484 6.528 -3.069 5.843 C -0.653 5.156 0.721 2.54 0 -0.001 Z" style="fill: rgb(229, 166, 45); fill-opacity: 1;"/>
    </g>
  </g>
  <g style="clip-path: url(#clippath5);" transform="matrix(0.471841, 0, 0, -0.474035, -331.03421, 104.63002)">
    <g transform="translate(836.0947 120.4307)">
      <path d="M 0 0 C 0.154 0.588 0.213 1.204 0.14 1.806 C 0.064 2.406 -0.124 2.989 -0.416 3.51 C -0.993 4.555 -1.968 5.356 -3.103 5.672 C -4.234 5.989 -5.486 5.811 -6.499 5.2 C -7.517 4.597 -8.291 3.597 -8.646 2.449 C -9.004 1.307 -8.92 0.006 -8.351 -1.064 C -7.804 -2.146 -6.772 -2.943 -5.626 -3.235 C -4.481 -3.549 -3.232 -3.363 -2.193 -2.775 C -1.15 -2.193 -0.325 -1.18 0 0 M 0.031 -0.01 C -0.304 -1.183 -1.031 -2.27 -2.083 -2.956 C -2.604 -3.304 -3.205 -3.531 -3.828 -3.633 C -4.452 -3.737 -5.099 -3.677 -5.702 -3.503 C -6.306 -3.32 -6.865 -3.004 -7.333 -2.59 C -7.8 -2.175 -8.177 -1.67 -8.455 -1.117 C -9.003 -0.008 -9.139 1.294 -8.824 2.5 C -8.521 3.706 -7.743 4.808 -6.664 5.471 C -6.128 5.805 -5.524 6.034 -4.896 6.132 C -4.268 6.231 -3.618 6.18 -3.008 6.006 C -1.777 5.669 -0.735 4.751 -0.219 3.61 C 0.309 2.473 0.377 1.165 0.031 -0.01" style="fill: rgb(171, 81, 45); fill-opacity: 1;"/>
    </g>
  </g>
  <g style="clip-path: url(#clippath5);" transform="matrix(0.471841, 0, 0, -0.474035, -331.03421, 104.63002)">
    <g transform="translate(854.2021 122.7578)">
      <path d="M 0 0 C -0.723 -2.545 -3.68 -3.933 -6.603 -3.104 C -9.525 -2.273 -11.312 0.462 -10.59 3.006 C -9.868 5.548 -6.911 6.935 -3.988 6.105 C -1.065 5.274 0.721 2.541 0 0" style="fill: rgb(229, 166, 45); fill-opacity: 1;"/>
    </g>
  </g>
  <g style="clip-path: url(#clippath5);" transform="matrix(0.471841, 0, 0, -0.474035, -331.03421, 104.63002)">
    <g transform="translate(854.1699 122.7607)">
      <path d="M 0 0 C 0.175 0.647 0.194 1.337 0.045 1.988 C -0.105 2.639 -0.404 3.248 -0.804 3.774 C -1.603 4.829 -2.76 5.576 -4.021 5.934 C -5.282 6.28 -6.662 6.248 -7.874 5.741 C -9.08 5.244 -10.101 4.247 -10.485 2.973 C -10.887 1.707 -10.59 0.261 -9.798 -0.812 C -9.022 -1.907 -7.816 -2.64 -6.547 -2.974 C -5.275 -3.316 -3.898 -3.277 -2.664 -2.797 C -2.049 -2.556 -1.476 -2.193 -1.006 -1.718 C -0.535 -1.242 -0.192 -0.645 0 0 M 0.032 -0.01 C -0.324 -1.323 -1.334 -2.417 -2.581 -2.99 C -3.832 -3.579 -5.306 -3.635 -6.624 -3.242 C -7.946 -2.847 -9.114 -1.998 -9.894 -0.879 C -10.275 -0.315 -10.567 0.313 -10.706 0.983 C -10.842 1.652 -10.842 2.356 -10.663 3.023 C -10.328 4.374 -9.272 5.489 -7.999 6.032 C -6.725 6.595 -5.255 6.656 -3.926 6.268 C -2.595 5.895 -1.377 5.061 -0.622 3.902 C 0.138 2.757 0.424 1.295 0.032 -0.01" style="fill: rgb(171, 81, 45); fill-opacity: 1;"/>
    </g>
  </g>
  <g style="clip-path: url(#clippath5);" transform="matrix(0.471841, 0, 0, -0.474035, -331.03421, 104.63002)">
    <g transform="translate(758.4307 139.4932)">
      <path d="M 0 0 C -0.649 -2.287 -4.269 -3.266 -8.083 -2.183 C -11.896 -1.1 -14.463 1.635 -13.813 3.922 C -13.163 6.211 -9.543 7.188 -5.729 6.105 C -1.915 5.022 0.65 2.289 0 0" style="fill: rgb(229, 166, 45); fill-opacity: 1;"/>
    </g>
  </g>
  <g style="clip-path: url(#clippath5);" transform="matrix(0.471841, 0, 0, -0.474035, -331.03421, 104.63002)">
    <g transform="translate(758.4307 139.4932)">
      <path d="M 0 0 C -0.649 -2.287 -4.269 -3.266 -8.083 -2.183 C -11.896 -1.1 -14.463 1.635 -13.813 3.922 C -13.163 6.211 -9.543 7.188 -5.729 6.105 C -1.915 5.022 0.65 2.289 0 0 Z" style="fill: none; stroke: rgb(171, 81, 45); stroke-opacity: 1; stroke-miterlimit: 4; stroke-width: 1px; stroke-dashoffset: 0px;"/>
    </g>
  </g>
  <g style="clip-path: url(#clippath5);" transform="matrix(0.471841, 0, 0, -0.474035, -331.03421, 104.63002)">
    <g transform="translate(793.7979 143.1357)">
      <path d="M 0 0 C -0.831 -2.926 -3.772 -4.653 -6.569 -3.859 C -9.366 -3.065 -10.961 -0.05 -10.13 2.876 C -9.301 5.8 -6.358 7.526 -3.563 6.732 C -0.766 5.939 0.83 2.924 0 0" style="fill: rgb(229, 166, 45); fill-opacity: 1;"/>
    </g>
  </g>
  <g style="clip-path: url(#clippath5);" transform="matrix(0.471841, 0, 0, -0.474035, -331.03421, 104.63002)">
    <g transform="translate(793.7979 143.1357)">
      <path d="M 0 0 C -0.831 -2.926 -3.772 -4.653 -6.569 -3.859 C -9.366 -3.065 -10.961 -0.05 -10.13 2.876 C -9.301 5.8 -6.358 7.526 -3.563 6.732 C -0.766 5.939 0.83 2.924 0 0 Z" style="fill: none; stroke: rgb(171, 81, 45); stroke-opacity: 1; stroke-miterlimit: 4; stroke-width: 1px; stroke-dashoffset: 0px;"/>
    </g>
  </g>
  <g style="clip-path: url(#clippath5);" transform="matrix(0.471841, 0, 0, -0.474035, -331.03421, 104.63002)">
    <g transform="translate(827.2109 132.9014)">
      <path d="M 0 0 C -0.938 -3.308 -4.173 -5.283 -7.224 -4.418 C -10.274 -3.552 -11.988 -0.171 -11.049 3.137 C -10.11 6.443 -6.875 8.421 -3.824 7.555 C -0.772 6.688 0.939 3.307 0 0" style="fill: rgb(229, 166, 45); fill-opacity: 1;"/>
    </g>
  </g>
  <g style="clip-path: url(#clippath5);" transform="matrix(0.471841, 0, 0, -0.474035, -331.03421, 104.63002)">
    <g transform="translate(827.1963 132.9072)">
      <path d="M 0 0 C 0.202 0.754 0.285 1.543 0.207 2.318 C 0.129 3.092 -0.092 3.849 -0.447 4.532 C -1.149 5.901 -2.386 6.976 -3.858 7.384 C -5.317 7.799 -6.942 7.528 -8.229 6.709 C -9.526 5.896 -10.495 4.588 -10.945 3.106 C -11.398 1.634 -11.313 -0.033 -10.617 -1.427 C -9.946 -2.832 -8.651 -3.904 -7.168 -4.289 C -5.695 -4.7 -4.074 -4.424 -2.759 -3.626 C -2.098 -3.229 -1.513 -2.701 -1.039 -2.083 C -0.566 -1.464 -0.224 -0.749 0 0 M 0.032 -0.01 C -0.388 -1.52 -1.322 -2.906 -2.646 -3.804 C -3.304 -4.256 -4.065 -4.561 -4.857 -4.699 C -5.651 -4.842 -6.474 -4.779 -7.249 -4.556 C -8.016 -4.327 -8.731 -3.918 -9.321 -3.383 C -9.911 -2.847 -10.383 -2.191 -10.723 -1.478 C -11.397 -0.044 -11.534 1.621 -11.122 3.158 C -10.726 4.693 -9.757 6.103 -8.4 6.976 C -7.727 7.413 -6.963 7.721 -6.165 7.855 C -5.367 7.994 -4.541 7.939 -3.76 7.716 C -2.988 7.493 -2.252 7.103 -1.653 6.561 C -1.054 6.021 -0.57 5.358 -0.248 4.628 C 0.404 3.167 0.472 1.496 0.032 -0.01" style="fill: rgb(171, 81, 45); fill-opacity: 1;"/>
    </g>
  </g>
  <g style="clip-path: url(#clippath5);" transform="matrix(0.471841, 0, 0, -0.474035, -331.03421, 104.63002)">
    <g transform="translate(795.1543 118.1211)">
      <path d="M 0 0 C -0.723 -2.543 -3.574 -3.961 -6.373 -3.167 C -9.17 -2.373 -10.852 0.333 -10.13 2.877 C -9.407 5.421 -6.555 6.838 -3.758 6.044 C -0.96 5.249 0.722 2.544 0 0" style="fill: rgb(229, 166, 45); fill-opacity: 1;"/>
    </g>
  </g>
  <g style="clip-path: url(#clippath5);" transform="matrix(0.471841, 0, 0, -0.474035, -331.03421, 104.63002)">
    <g transform="translate(795.1387 118.125)">
      <path d="M 0 0 C 0.17 0.632 0.202 1.303 0.072 1.942 C -0.058 2.581 -0.327 3.187 -0.699 3.712 C -1.445 4.767 -2.558 5.522 -3.79 5.871 C -5.016 6.21 -6.367 6.146 -7.53 5.613 C -8.691 5.09 -9.647 4.087 -10.024 2.845 C -10.417 1.611 -10.179 0.199 -9.441 -0.876 C -8.722 -1.971 -7.557 -2.715 -6.318 -3.039 C -5.078 -3.374 -3.732 -3.305 -2.544 -2.796 C -1.951 -2.543 -1.405 -2.17 -0.958 -1.694 C -0.51 -1.219 -0.18 -0.633 0 0 M 0.032 -0.01 C -0.323 -1.284 -1.249 -2.388 -2.455 -2.987 C -3.656 -3.604 -5.104 -3.693 -6.395 -3.307 C -7.689 -2.92 -8.816 -2.058 -9.539 -0.939 C -9.895 -0.377 -10.155 0.247 -10.274 0.905 C -10.389 1.561 -10.377 2.245 -10.202 2.896 C -9.876 4.209 -8.894 5.327 -7.664 5.9 C -6.438 6.491 -4.996 6.589 -3.691 6.204 C -2.392 5.841 -1.21 4.991 -0.514 3.834 C 0.188 2.687 0.413 1.261 0.032 -0.01" style="fill: rgb(171, 81, 45); fill-opacity: 1;"/>
    </g>
  </g>
  <g style="clip-path: url(#clippath5);" transform="matrix(0.471841, 0, 0, -0.474035, -331.03421, 104.63002)">
    <g transform="translate(866.625 119.2256)">
      <path d="M 0 0 C -0.723 -2.545 -3.575 -3.962 -6.372 -3.167 C -9.17 -2.374 -10.853 0.331 -10.13 2.876 C -9.408 5.418 -6.556 6.835 -3.758 6.04 C -0.961 5.246 0.722 2.542 0 0" style="fill: rgb(229, 166, 45); fill-opacity: 1;"/>
    </g>
  </g>
  <g style="clip-path: url(#clippath5);" transform="matrix(0.471841, 0, 0, -0.474035, -331.03421, 104.63002)">
    <g transform="translate(866.625 119.2256)">
      <path d="M 0 0 C -0.723 -2.545 -3.575 -3.962 -6.372 -3.167 C -9.17 -2.374 -10.853 0.331 -10.13 2.876 C -9.408 5.418 -6.556 6.835 -3.758 6.04 C -0.961 5.246 0.722 2.542 0 0 Z" style="fill: none; stroke: rgb(171, 81, 45); stroke-opacity: 1; stroke-miterlimit: 4; stroke-width: 1px; stroke-dashoffset: 0px;"/>
    </g>
  </g>
  <g style="clip-path: url(#clippath5);" transform="matrix(0.471841, 0, 0, -0.474035, -331.03421, 104.63002)">
    <g transform="translate(804.1465 127.0127)">
      <path d="M 0 0 C -0.434 -1.527 -3.877 -1.885 -7.69 -0.803 C -11.504 0.28 -14.247 2.395 -13.813 3.922 C -13.379 5.448 -9.936 5.806 -6.122 4.724 C -2.309 3.641 0.434 1.526 0 0" style="fill: rgb(229, 166, 45); fill-opacity: 1;"/>
    </g>
  </g>
  <g style="clip-path: url(#clippath5);" transform="matrix(0.471841, 0, 0, -0.474035, -331.03421, 104.63002)">
    <g transform="translate(804.1465 127.0127)">
      <path d="M 0 0 C -0.434 -1.527 -3.877 -1.885 -7.69 -0.803 C -11.504 0.28 -14.247 2.395 -13.813 3.922 C -13.379 5.448 -9.936 5.806 -6.122 4.724 C -2.309 3.641 0.434 1.526 0 0 Z" style="fill: none; stroke: rgb(171, 81, 45); stroke-opacity: 1; stroke-miterlimit: 4; stroke-width: 1px; stroke-dashoffset: 0px;"/>
    </g>
  </g>
  <g style="clip-path: url(#clippath5);" transform="matrix(0.471841, 0, 0, -0.474035, -331.03421, 104.63002)">
    <g transform="translate(813.7754 148.6572)">
      <path d="M 0 0 C -0.649 -2.288 -2.62 -3.734 -4.399 -3.229 C -6.178 -2.725 -7.094 -0.459 -6.444 1.829 C -5.795 4.117 -3.825 5.562 -2.047 5.058 C -0.268 4.552 0.649 2.287 0 0" style="fill: rgb(229, 166, 45); fill-opacity: 1;"/>
    </g>
  </g>
  <g style="clip-path: url(#clippath5);" transform="matrix(0.471841, 0, 0, -0.474035, -331.03421, 104.63002)">
    <g transform="translate(813.7568 148.6631)">
      <path d="M 0 0 C 0.274 0.965 0.238 2.019 -0.119 2.934 C -0.465 3.844 -1.162 4.633 -2.08 4.88 C -2.991 5.142 -3.997 4.83 -4.74 4.216 C -5.494 3.604 -6.038 2.739 -6.34 1.799 C -6.635 0.857 -6.68 -0.191 -6.343 -1.131 C -6.033 -2.072 -5.277 -2.869 -4.344 -3.101 C -3.411 -3.354 -2.414 -3.027 -1.639 -2.438 C -0.856 -1.844 -0.271 -0.967 0 0 M 0.032 -0.01 C -0.249 -0.972 -0.732 -1.906 -1.505 -2.601 C -1.887 -2.944 -2.344 -3.227 -2.853 -3.37 C -3.358 -3.52 -3.912 -3.516 -4.42 -3.368 C -4.928 -3.212 -5.376 -2.899 -5.716 -2.509 C -6.056 -2.116 -6.293 -1.65 -6.453 -1.168 C -6.764 -0.194 -6.768 0.858 -6.518 1.85 C -6.269 2.838 -5.742 3.784 -4.941 4.46 C -4.544 4.797 -4.08 5.068 -3.567 5.216 C -3.058 5.364 -2.499 5.373 -1.981 5.226 C -1.467 5.073 -0.996 4.772 -0.648 4.374 C -0.298 3.976 -0.05 3.502 0.091 3.005 C 0.38 2.007 0.303 0.958 0.032 -0.01" style="fill: rgb(171, 81, 45); fill-opacity: 1;"/>
    </g>
  </g>
  <g style="clip-path: url(#clippath5);" transform="matrix(0.471841, 0, 0, -0.474035, -331.03421, 104.63002)">
    <g transform="translate(770.3223 146.3174)">
      <path d="M 0 0 C -0.397 -1.398 -2.471 -2.035 -4.634 -1.421 C -6.794 -0.808 -8.226 0.824 -7.829 2.222 C -7.432 3.622 -5.356 4.258 -3.196 3.644 C -1.033 3.03 0.397 1.399 0 0" style="fill: rgb(229, 166, 45); fill-opacity: 1;"/>
    </g>
  </g>
  <g style="clip-path: url(#clippath5);" transform="matrix(0.471841, 0, 0, -0.474035, -331.03421, 104.63002)">
    <g transform="translate(770.3223 146.3174)">
      <path d="M 0 0 C -0.397 -1.398 -2.471 -2.035 -4.634 -1.421 C -6.794 -0.808 -8.226 0.824 -7.829 2.222 C -7.432 3.622 -5.356 4.258 -3.196 3.644 C -1.033 3.03 0.397 1.399 0 0 Z" style="fill: none; stroke: rgb(171, 81, 45); stroke-opacity: 1; stroke-miterlimit: 4; stroke-width: 1px; stroke-dashoffset: 0px;"/>
    </g>
  </g>
  <g style="clip-path: url(#clippath5);" transform="matrix(0.471841, 0, 0, -0.474035, -331.03421, 104.63002)">
    <g transform="translate(809.8125 159.2354)">
      <path d="M 0 0 C -0.939 -3.307 -5.102 -5.02 -9.297 -3.828 C -13.492 -2.638 -16.134 1.007 -15.195 4.314 C -14.256 7.62 -10.094 9.332 -5.899 8.142 C -1.703 6.95 0.938 3.306 0 0" style="fill: rgb(229, 166, 45); fill-opacity: 1;"/>
    </g>
  </g>
  <g style="clip-path: url(#clippath5);" transform="matrix(0.471841, 0, 0, -0.474035, -331.03421, 104.63002)">
    <g transform="translate(809.7969 159.2402)">
      <path d="M 0 0 C 0.244 0.893 0.233 1.849 -0.026 2.732 C -0.283 3.617 -0.755 4.427 -1.349 5.121 C -2.544 6.51 -4.18 7.473 -5.93 7.971 C -7.682 8.457 -9.583 8.492 -11.31 7.907 C -12.168 7.613 -12.979 7.168 -13.646 6.552 C -14.312 5.939 -14.829 5.158 -15.091 4.284 C -15.351 3.412 -15.365 2.463 -15.125 1.576 C -14.894 0.687 -14.444 -0.143 -13.855 -0.849 C -12.682 -2.279 -11.001 -3.223 -9.242 -3.698 C -7.481 -4.181 -5.583 -4.21 -3.836 -3.652 C -2.967 -3.372 -2.14 -2.931 -1.456 -2.313 C -0.771 -1.696 -0.26 -0.888 0 0 M 0.032 -0.009 C -0.212 -0.909 -0.726 -1.726 -1.395 -2.376 C -2.062 -3.033 -2.887 -3.523 -3.767 -3.852 C -5.535 -4.513 -7.52 -4.496 -9.318 -3.967 C -11.121 -3.433 -12.767 -2.375 -13.945 -0.922 C -14.524 -0.191 -14.991 0.64 -15.239 1.546 C -15.485 2.447 -15.518 3.42 -15.268 4.334 C -15.024 5.248 -14.518 6.093 -13.829 6.746 C -13.146 7.406 -12.306 7.893 -11.414 8.207 C -9.624 8.84 -7.644 8.829 -5.835 8.305 C -4.024 7.792 -2.334 6.754 -1.177 5.261 C -0.603 4.517 -0.157 3.667 0.064 2.757 C 0.292 1.851 0.299 0.886 0.032 -0.009" style="fill: rgb(171, 81, 45); fill-opacity: 1;"/>
    </g>
  </g>
  <g style="clip-path: url(#clippath5);" transform="matrix(0.471841, 0, 0, -0.474035, -331.03421, 104.63002)">
    <g transform="translate(833.3047 145.5996)">
      <path d="M 0 0 C -0.649 -2.287 -3.239 -3.559 -5.78 -2.837 C -8.325 -2.114 -9.858 0.327 -9.209 2.615 C -8.56 4.903 -5.972 6.173 -3.428 5.451 C -0.886 4.73 0.65 2.288 0 0" style="fill: rgb(229, 166, 45); fill-opacity: 1;"/>
    </g>
  </g>
  <g style="clip-path: url(#clippath5);" transform="matrix(0.471841, 0, 0, -0.474035, -331.03421, 104.63002)">
    <g transform="translate(833.29 145.6035)">
      <path d="M 0 0 C 0.338 1.15 0.027 2.414 -0.659 3.346 C -1.343 4.29 -2.352 4.964 -3.46 5.278 C -4.568 5.583 -5.784 5.534 -6.838 5.062 C -7.89 4.599 -8.761 3.703 -9.104 2.583 C -9.462 1.47 -9.237 0.192 -8.562 -0.772 C -7.902 -1.757 -6.847 -2.415 -5.725 -2.71 C -4.609 -3.01 -3.396 -2.948 -2.317 -2.507 C -1.779 -2.283 -1.282 -1.953 -0.874 -1.526 C -0.465 -1.102 -0.163 -0.571 0 0 M 0.032 -0.01 C -0.291 -1.163 -1.134 -2.159 -2.229 -2.698 C -3.321 -3.258 -4.633 -3.328 -5.807 -2.976 C -6.974 -2.622 -7.999 -1.844 -8.659 -0.836 C -8.983 -0.329 -9.226 0.234 -9.338 0.829 C -9.445 1.423 -9.439 2.043 -9.282 2.634 C -8.989 3.826 -8.089 4.838 -6.971 5.351 C -5.855 5.879 -4.545 5.96 -3.365 5.612 C -2.183 5.28 -1.111 4.516 -0.475 3.469 C 0.171 2.432 0.368 1.142 0.032 -0.01" style="fill: rgb(171, 81, 45); fill-opacity: 1;"/>
    </g>
  </g>
  <g style="clip-path: url(#clippath5);" transform="matrix(0.471841, 0, 0, -0.474035, -331.03421, 104.63002)">
    <g transform="translate(820.377 95.0703)">
      <path d="M 0 0 L -2.626 -9.249 C -2.469 -8.695 7.196 -11.441 8.107 -11.692 C 11.636 -12.662 15.427 -12.47 18.877 -11.28 C 21.088 -10.52 24.336 -7.759 26.844 -8.388 C 27.773 -8.212 29.205 1.63 28.118 2.357 C 25.96 3.803 22.248 0.654 20.64 -0.445 C 17.844 -2.364 14.661 -3.956 11.184 -3.9 C 9.823 -3.879 0.232 0.335 0 0" style="fill: rgb(67, 27, 16); fill-opacity: 1;"/>
    </g>
  </g>
  <g style="clip-path: url(#clippath5);" transform="matrix(0.471841, 0, 0, -0.474035, -331.03421, 104.63002)">
    <g transform="translate(755.5928 116.542)">
      <path d="M 0 0 C 1.526 -0.433 2.423 -1.982 2.003 -3.46 C 1.584 -4.937 0.007 -5.784 -1.519 -5.352 C -3.045 -4.918 -3.941 -3.369 -3.521 -1.892 C -3.103 -0.413 -1.525 0.434 0 0" style="fill: rgb(0, 0, 0); fill-opacity: 1;"/>
    </g>
  </g>
  <g style="clip-path: url(#clippath5);" transform="matrix(0.471841, 0, 0, -0.474035, -331.03421, 104.63002)">
    <g transform="translate(731.75 160.1201)">
      <path d="M 0 0 L -3.787 -9.642 L -6.101 -20.071 L -2.303 -10.134 Z" style="fill: rgb(255, 255, 255); fill-opacity: 1;"/>
    </g>
  </g>
  <g style="clip-path: url(#clippath5);" transform="matrix(0.471841, 0, 0, -0.474035, -331.03421, 104.63002)">
    <g transform="translate(721.1182 152.5215)">
      <path d="M 0 0 L 7.794 -3.215 L 16.302 -4.932 L 8.262 -1.727 Z" style="fill: rgb(255, 255, 255); fill-opacity: 1;"/>
    </g>
  </g>
  <g style="clip-path: url(#clippath5);" transform="matrix(0.471841, 0, 0, -0.474035, -331.03421, 104.63002)">
    <g transform="translate(780.6709 161.8174)">
      <path d="M 0 0 L -3.787 -9.643 L -6.097 -20.072 L -2.303 -10.131 Z" style="fill: rgb(255, 255, 255); fill-opacity: 1;"/>
    </g>
  </g>
  <g style="clip-path: url(#clippath5);" transform="matrix(0.471841, 0, 0, -0.474035, -331.03421, 104.63002)">
    <g transform="translate(770.0391 154.2187)">
      <path d="M 0 0 L 7.794 -3.215 L 16.298 -4.933 L 8.262 -1.728 Z" style="fill: rgb(255, 255, 255); fill-opacity: 1;"/>
    </g>
  </g>
  <g style="clip-path: url(#clippath5);" transform="matrix(0.471841, 0, 0, -0.474035, -331.03421, 104.63002)">
    <g transform="translate(820.377 167.2539)">
      <path d="M 0 0 L -3.787 -9.642 L -6.097 -20.068 L -2.303 -10.13 Z" style="fill: rgb(255, 255, 255); fill-opacity: 1;"/>
    </g>
  </g>
  <g style="clip-path: url(#clippath5);" transform="matrix(0.471841, 0, 0, -0.474035, -331.03421, 104.63002)">
    <g transform="translate(809.7451 159.6562)">
      <path d="M 0 0 L 7.794 -3.216 L 16.302 -4.933 L 8.262 -1.725 Z" style="fill: rgb(255, 255, 255); fill-opacity: 1;"/>
    </g>
  </g>
  <g style="clip-path: url(#clippath5);" transform="matrix(0.471841, 0, 0, -0.474035, -331.03421, 104.63002)">
    <g transform="translate(810.7051 132.3965)">
      <path d="M 0 0 L -3.788 -9.643 L -6.098 -20.072 L -2.303 -10.131 Z" style="fill: rgb(255, 255, 255); fill-opacity: 1;"/>
    </g>
  </g>
  <g style="clip-path: url(#clippath5);" transform="matrix(0.471841, 0, 0, -0.474035, -331.03421, 104.63002)">
    <g transform="translate(800.0762 124.7979)">
      <path d="M 0 0 L 7.79 -3.216 L 16.298 -4.933 L 8.262 -1.728 Z" style="fill: rgb(255, 255, 255); fill-opacity: 1;"/>
    </g>
  </g>
  <g style="clip-path: url(#clippath5);" transform="matrix(0.471841, 0, 0, -0.474035, -331.03421, 104.63002)">
    <g transform="translate(859.4541 137.2676)">
      <path d="M 0 0 L -3.805 -9.642 L -6.094 -20.068 L -2.29 -10.13 Z" style="fill: rgb(255, 255, 255); fill-opacity: 1;"/>
    </g>
  </g>
  <g style="clip-path: url(#clippath5);" transform="matrix(0.471841, 0, 0, -0.474035, -331.03421, 104.63002)">
    <g transform="translate(848.8154 129.6689)">
      <path d="M 0 0 L 7.811 -3.215 L 16.294 -4.932 L 8.281 -1.727 Z" style="fill: rgb(255, 255, 255); fill-opacity: 1;"/>
    </g>
  </g>
  <g style="clip-path: url(#clippath5);" transform="matrix(0.471841, 0, 0, -0.474035, -331.03421, 104.63002)">
    <g transform="translate(913.3535 167.9238)">
      <path d="M 0 0 C -0.941 15.254 -10.034 31.695 -24.238 38.356 C -24.728 38.618 -25.218 38.877 -25.711 39.129 C -27.236 39.909 -28.551 40.46 -30.176 40.843 C -31.221 41.088 -32.083 41.833 -33.11 42.085 C -33.874 42.269 -34.583 42.026 -35.335 42.222 C -35.369 42.143 -35.396 42.061 -35.421 41.979 L -39.491 43.136 L -82.473 47.898 C -82.307 49.365 -82.604 51.383 -82.719 52.525 C -83.109 56.414 -84.435 60.415 -88.497 61.777 C -97.263 64.721 -100.772 57.137 -102.855 50.157 L -146.106 54.95 L -148.598 -0.774 C -149.413 -1.282 -150.074 -1.964 -150.507 -2.789 C -150.899 -3.119 -151.252 -3.484 -151.543 -3.896 C -150.636 -0.718 -155.95 1.473 -158.671 1.479 C -162.349 1.487 -163.099 -1.342 -163.832 -4.215 C -164.02 -3.754 -164.263 -3.323 -164.557 -2.933 C -164.548 -2.741 -164.527 -2.517 -164.495 -2.239 C -168.059 0.367 -170.71 0.469 -172.319 -2.262 C -172.833 -2.714 -173.278 -3.263 -173.63 -3.89 C -173.744 -3.477 -173.854 -3.033 -173.849 -2.651 C -175.757 -2.048 -179.891 -1.63 -181.057 -3.594 C -185.045 4.551 -194.864 -2.188 -190.812 -7.234 C -194.056 -3.193 -195.186 -6.389 -195.447 -9.563 C -195.845 -9.387 -196.261 -9.23 -196.697 -9.107 C -200.513 -8.023 -204.277 -9.515 -205.107 -12.44 C -205.485 -13.771 -205.185 -15.166 -204.394 -16.396 C -206.242 -17.281 -208.528 -19.61 -209.263 -20.57 L -211.747 -19.902 L -210.912 -33.212 L -208.488 -33.899 L -200.235 -98.536 L -184.326 -102.924 L -184.323 -103.477 L -172.193 -106.719 L -172.187 -106.271 L -152.311 -111.755 L -152.368 -112.549 L -137.772 -116.294 L -137.734 -115.775 L -105.025 -124.797 L -104.427 -124.639 L -104.438 -124.751 L -93.486 -122.239 L -93.411 -121.723 L -55.968 -111.812 L -43.914 -51.151 L -41.285 -50.611 L -40.483 -44.372 L -38.91 -44.031 C -38.338 -43.989 -37.648 -43.809 -37.063 -43.631 L -36.399 -43.487 L -35.104 -43.008 C -33.312 -42.417 -31.543 -41.73 -29.778 -41.037 L -25.229 -39.354 C -20.858 -37.736 -14.03 -34.5 -11.292 -30.603 C -5.077 -21.758 0.687 -11.146 -0.002 0.002 L 0 0 Z" style="fill: none; stroke: rgb(48, 48, 48); stroke-opacity: 1; stroke-miterlimit: 10; stroke-width: 1px; stroke-dashoffset: 0px;"/>
    </g>
  </g>
</svg>