<?xml version="1.0" encoding="utf-8"?>
<svg viewBox="0 0 100 199.405" xmlns="http://www.w3.org/2000/svg">
  <defs>
    <clipPath id="clip-1" transform="">
      <path d="M 0 1920 L 1080 1920 L 1080 0 L 0 0 Z" style="fill: none; clip-rule: nonzero;"/>
    </clipPath>
  </defs>
  <g style="clip-path: url(#clip-1);" transform="matrix(-0.867898, 0, 0, -0.56034, 312.173706, 228.058197)">
    <g transform="translate(306.3657 406.9883)">
      <path d="M 0 0 C 6.338 -0.414 23.499 -54.543 16.238 -79.023 C 8.743 -104.292 -15.004 -115.357 -6.903 -153.859 C 1.197 -192.359 11.62 -210.723 -12.158 -253.18 C -24.225 -274.729 -21.735 -299.327 -16.356 -318.327 C -22.076 -287.753 -7.57 -269.676 1.858 -239.512 C 13.41 -202.556 5.653 -187.163 0.515 -160.898 C -4.624 -134.636 18.961 -81.081 24.408 -85.202 C 29.854 -89.324 5.6 -130.75 13.021 -164.665 C 20.013 -196.614 22.408 -206.035 10.07 -244.775 C -1.024 -279.612 -14.64 -294.839 -6.012 -331.343 C -6.693 -321.286 -5.957 -309.541 -1.091 -299.783 C 9.877 -277.79 29.605 -260.397 31.361 -222.009 C 33.117 -183.619 39.488 -153.105 49.176 -159.087 C 58.863 -165.073 49.24 -168.567 44 -185.134 C 38.76 -201.7 38.053 -244.415 31.502 -256.956 C 24.951 -269.501 3.584 -295.574 0.508 -308.394 C -2.081 -319.18 -3.729 -325.009 -2.845 -342.626 C -2.648 -343.237 -2.448 -343.84 -2.24 -344.462 C -0.939 -348.366 0.091 -352.161 0.885 -355.853 C -3.145 -353.984 -7.724 -351.941 -12.701 -349.813 C -14.327 -346.086 -16.296 -341.792 -18.293 -336.915 C -17.295 -340.853 -16.564 -344.671 -16.076 -348.377 C -18.074 -347.543 -20.115 -346.715 -22.193 -345.886 C -22.414 -343.917 -22.715 -341.938 -23.105 -339.957 C -28.333 -331.704 -42.145 -309.333 -52.131 -287.902 C -64.64 -261.061 -48.666 -242.923 -42.68 -219.842 C -36.693 -196.764 -48.988 -188.413 -56.105 -182.312 C -63.223 -176.212 -65.953 -158.91 -51.41 -172.06 C -36.867 -185.208 -36.24 -202.336 -34.492 -210.322 C -32.745 -218.31 -47.311 -251.797 -47.205 -272.582 C -47.139 -285.547 -38.023 -304.431 -31.175 -316.808 C -46.555 -277.651 -42.124 -261.142 -31.367 -226.73 C -19.815 -189.774 -42.395 -175.069 -47.534 -148.805 C -52.672 -122.542 -29.088 -68.987 -23.641 -73.109 C -18.194 -77.231 -48.419 -121.951 -35.026 -152.557 C -21.633 -183.161 -10.817 -193.255 -23.155 -231.994 C -33.809 -265.447 -35.662 -278.943 -26.001 -311.922 C -29.107 -295.777 -28.831 -276.63 -19.297 -255.377 C 0.312 -211.667 -6.816 -198.185 -15.535 -157.79 C -24.253 -117.395 -12.607 -109.067 3.479 -80.78 C 19.565 -52.493 -6.367 -3.36 -0.584 -0.119 C -0.403 -0.018 -0.203 0.022 0.001 0.009 Z" style="fill: rgb(0, 212, 0); fill-opacity: 1;"/>
    </g>
  </g>
</svg>