<?xml version="1.0" encoding="utf-8"?>
<svg preserveAspectRatio="none" viewBox="0 0 100 182.74" xmlns="http://www.w3.org/2000/svg">
  <defs>
    <clipPath id="clippath5" transform="">
      <path d="M 0 1920 L 1080 1920 L 1080 0 L 0 0 Z" style="fill: none; clip-rule: nonzero;"/>
    </clipPath>
  </defs>
  <g style="clip-path: url(#clippath5);" transform="matrix(-1.025826, 0, 0, -0.83065, 1059.514893, 256.598663)">
    <g transform="translate(981.249 308.9131)">
      <path d="M 0 0 C -0.174 -0.002 -0.345 -0.045 -0.494 -0.118 C -5.272 -2.468 18.618 -32.412 6.075 -51.203 C -6.469 -69.994 -16.023 -75.864 -7.063 -101.116 C 1.896 -126.367 8.46 -134.59 -6.473 -163.365 C -13.732 -177.354 -13.216 -189.538 -9.956 -199.649 C -19.427 -179.162 -18.38 -170.487 -10.643 -148.682 C -1.684 -123.432 -11.25 -117.562 -23.793 -98.772 C -36.337 -79.981 -12.434 -50.023 -17.212 -47.676 C -21.991 -45.327 -39.921 -80.564 -34.545 -97.006 C -29.17 -113.447 -9.453 -121.667 -17.815 -145.743 C -25.603 -168.163 -28.711 -178.884 -14.151 -203.013 C -20.437 -195.485 -28.9 -183.928 -29.459 -175.687 C -30.354 -162.475 -19.302 -140.461 -21.094 -135.47 C -22.886 -130.479 -24.09 -119.617 -36.932 -111.983 C -49.773 -104.35 -46.783 -115.215 -40.512 -118.737 C -34.24 -122.261 -23.493 -126.954 -27.675 -141.928 C -31.855 -156.902 -44.698 -169.235 -33.051 -185.679 C -23.751 -198.807 -11.166 -212.344 -6.413 -217.33 C -6.121 -218.217 -5.87 -219.108 -5.653 -219.996 L -1.229 -218.491 C -1.593 -217.392 -2.001 -216.274 -2.459 -215.149 C -1.783 -216.228 -1.11 -217.247 -0.459 -218.23 L 10.486 -214.486 C 9.719 -205.962 10.804 -202.276 12.378 -196.083 C 14.49 -187.778 31.598 -170.13 36.666 -161.825 C 41.734 -153.521 40.688 -126.324 44.488 -115.529 C 48.29 -104.733 56.311 -102.024 47.863 -98.703 C 39.416 -95.381 35.195 -115.11 35.195 -139.61 C 35.195 -164.109 19.139 -176.149 10.69 -190.684 C 6.943 -197.131 6.782 -204.646 7.75 -211.007 C -0.981 -188.228 9.963 -177.864 18.02 -155.159 C 26.979 -129.908 24.584 -124.028 17.417 -104.063 C 9.808 -82.868 28.776 -55.313 23.998 -52.967 C 19.219 -50.617 1.289 -85.854 6.665 -102.296 C 12.041 -118.737 19.222 -128.143 10.859 -152.22 C 4.034 -171.871 -7.566 -184.091 -1.531 -203.244 C -6.829 -191.432 -9.893 -175.909 -0.495 -161.605 C 18.022 -133.419 8.471 -122.26 0.108 -98.186 C -8.255 -74.109 11.45 -65.89 16.826 -49.447 C 22.034 -33.52 5.39 0.045 0 -0.008 Z" style="fill: rgb(0, 170, 0); fill-opacity: 1;"/>
    </g>
  </g>
</svg>