<?xml version="1.0" encoding="utf-8"?>
<svg viewBox="0 2 27.51 28.892" xmlns="http://www.w3.org/2000/svg" xmlns:xlink="http://www.w3.org/1999/xlink">
  <defs>
    <radialGradient id="c" cx="337.14" cy="809.86" r="67.922" gradientTransform="matrix(0.37614, 0.002456, -0.006808, 0.245116, 288.365452, 50.359491)" gradientUnits="userSpaceOnUse" xlink:href="#b"/>
    <linearGradient id="b">
      <stop stop-color="#ab855d" offset="0"/>
      <stop stop-color="#52300d" offset="1"/>
    </linearGradient>
    <linearGradient id="e" x1="232.36" x2="185.84" y1="277.58" y2="292.48" gradientUnits="userSpaceOnUse" gradientTransform="matrix(0.483929, 0, 0, 0.483929, 291.208679, 115.011139)" xlink:href="#b"/>
  </defs>
  <g transform="matrix(0.480553, 0, 0, 0.659654, -176.175034, -150.51915)" style="">
    <path d="M 425.977 249.698 C 425.928 254.945 418.585 259.199 409.575 259.199 C 400.565 259.199 393.302 254.945 393.351 249.698 C 393.399 244.45 400.743 240.196 409.752 240.196 C 418.762 240.196 426.026 244.45 425.977 249.698 Z" fill="url(#c)" stroke="#6f4923" stroke-width="10.129" transform="matrix(0.317716, 0.948186, -0.948186, 0.317716, 516.266893, -218.073019)"/>
    <path d="M 370.157 241.152 L 380.912 275.616 C 386.531 279.039 393.842 279.511 399.854 276.838 C 404.831 274.625 408.847 270.339 410.731 265.228 L 401.321 230.887 C 399.767 237.061 394.979 242.324 388.978 244.452 C 385.84 245.565 382.413 245.852 379.134 245.277 C 375.854 244.702 372.73 243.267 370.157 241.153" fill="url(#e)" stroke="#6f4923" stroke-linejoin="round" stroke-width="5" transform="matrix(0, 1, -1, 0, 645.166031, -135.72197)"/>
  </g>
</svg>