<?xml version="1.0" encoding="utf-8"?>
<svg viewBox="0 0 35 38.319" xmlns="http://www.w3.org/2000/svg">
  <defs>
    <clipPath id="clippath5" transform="">
      <path d="M 0 1920 L 1080 1920 L 1080 0 L 0 0 Z" style="fill: none; clip-rule: nonzero;"/>
    </clipPath>
  </defs>
  <g transform="matrix(0.329529, 0, 0, -0.331061, -33.867455, 51.364513)">
    <g style="clip-path: url(#clippath5);">
      <g transform="translate(117.4385 92.2686)">
        <path d="M 0 0 C -6.212 -20.776 -25.708 6.186 -6.212 -20.776 C 17.664 -53.796 25.601 -62.804 31.026 -40.882 C 48.161 -44.425 66.753 -39.198 81.841 -32.599 C 97.329 -25.824 93.434 10.645 76.195 34.429 C 58.554 58.77 26.718 69.868 17.248 58.259 C -1.9 34.782 0 -0.001 0 -0.001 Z" style="fill: rgb(199, 183, 183); fill-opacity: 1;"/>
      </g>
    </g>
    <g style="clip-path: url(#clippath5);">
      <g transform="translate(192.7964 127.8242)">
        <path d="M 0 0 C -1.409 1.864 -2.902 3.654 -4.459 5.352 C -21.357 -11.107 -63.397 -56.199 -62.417 -54.313 C -61.347 -52.255 -26.704 -6.562 -10.182 10.957 C -10.236 11.004 -10.282 11.06 -10.335 11.107 C -10.934 11.633 -11.548 12.141 -12.156 12.644 C -12.371 12.82 -12.583 13.002 -12.799 13.176 C -13.242 13.532 -13.682 13.878 -14.13 14.222 C -14.302 14.354 -14.466 14.499 -14.639 14.63 C -15.388 15.194 -16.163 15.737 -16.92 16.268 C -17.687 16.804 -18.45 17.321 -19.221 17.822 C -31.313 2.298 -57.796 -31.711 -65.57 -49.699 C -60.842 -31.668 -38.533 5.023 -27.75 22.575 C -28.16 22.767 -28.566 22.946 -28.974 23.126 C -29.382 23.306 -29.793 23.483 -30.199 23.652 C -31.011 23.989 -31.814 24.312 -32.615 24.604 C -33.417 24.896 -34.213 25.163 -35.001 25.408 C -35.396 25.531 -35.786 25.648 -36.177 25.761 C -36.567 25.872 -36.958 25.975 -37.345 26.075 C -44.446 12.744 -63.634 -18.477 -69.073 -45.438 C -69.649 -30.747 -59.199 1.139 -46.119 27.317 C -46.442 27.318 -46.768 27.317 -47.083 27.307 C -47.399 27.296 -47.711 27.278 -48.019 27.257 C -48.09 27.251 -48.162 27.251 -48.233 27.245 C -48.466 27.226 -48.695 27.192 -48.924 27.167 C -49.224 27.133 -49.518 27.097 -49.809 27.051 C -49.835 27.047 -49.862 27.052 -49.888 27.048 C -50.152 27.005 -50.408 26.948 -50.665 26.895 C -51.184 26.787 -51.694 26.661 -52.182 26.513 C -52.224 26.5 -52.267 26.48 -52.31 26.467 C -52.573 26.384 -52.832 26.301 -53.086 26.205 C -53.303 26.124 -53.517 26.043 -53.727 25.952 C -53.818 25.913 -53.907 25.868 -53.997 25.826 C -54.132 25.765 -54.265 25.696 -54.397 25.631 C -54.5 25.579 -54.603 25.526 -54.704 25.473 C -54.767 25.439 -54.832 25.407 -54.893 25.373 C -55.006 25.311 -55.116 25.236 -55.227 25.17 C -55.449 25.037 -55.662 24.906 -55.872 24.761 C -56.021 24.657 -56.175 24.547 -56.318 24.437 C -56.377 24.393 -56.442 24.348 -56.5 24.301 L -56.635 24.184 C -56.784 24.061 -56.921 23.94 -57.063 23.81 C -57.096 23.781 -57.129 23.753 -57.162 23.725 C -57.315 23.58 -57.465 23.422 -57.61 23.269 C -57.625 23.255 -57.643 23.24 -57.659 23.226 C -57.817 23.056 -57.966 22.879 -58.114 22.698 C -58.121 22.682 -58.128 22.666 -58.141 22.653 C -65.177 6.636 -72.308 -16.64 -71.748 -41.065 C -74.489 -31.767 -73.842 -25.027 -74.083 -16.284 C -74.139 -16.647 -74.206 -17.018 -74.257 -17.375 C -74.359 -18.077 -74.443 -18.77 -74.528 -19.445 C -74.603 -20.035 -74.669 -20.605 -74.731 -21.173 C -74.74 -21.256 -74.759 -21.341 -74.768 -21.423 C -74.793 -21.659 -74.814 -21.907 -74.838 -22.139 C -74.878 -22.532 -74.918 -22.93 -74.953 -23.31 C -75.006 -23.891 -75.056 -24.459 -75.098 -25.008 C -75.102 -25.055 -75.108 -25.104 -75.111 -25.151 C -75.124 -25.312 -75.137 -25.484 -75.148 -25.642 C -75.176 -26.024 -75.192 -26.405 -75.215 -26.77 C -75.264 -27.57 -75.304 -28.282 -75.333 -28.99 C -75.345 -29.306 -75.36 -29.644 -75.37 -29.94 C -75.371 -29.98 -75.37 -30.032 -75.372 -30.072 C -75.418 -31.632 -75.427 -32.901 -75.416 -33.823 C -75.415 -33.879 -75.413 -33.964 -75.412 -34.017 C -75.397 -35.007 -75.363 -35.568 -75.363 -35.568 C -77.609 -35.167 -76.269 -35.343 -77.609 -35.167 C -78.279 -35.078 -79.057 -35.002 -79.886 -34.967 C -80.439 -34.943 -81.008 -34.941 -81.589 -34.965 C -81.88 -34.978 -82.179 -35.006 -82.47 -35.034 C -82.761 -35.062 -83.044 -35.083 -83.331 -35.129 C -84.914 -35.379 -86.394 -35.923 -87.432 -36.954 C -87.62 -37.142 -87.807 -37.35 -87.963 -37.57 C -88.119 -37.791 -88.249 -38.016 -88.368 -38.272 C -88.37 -38.276 -88.377 -38.28 -88.38 -38.283 C -88.676 -38.922 -88.849 -39.684 -88.874 -40.569 C -88.884 -40.927 -88.871 -41.309 -88.83 -41.71 C -88.581 -44.117 -87.368 -47.34 -84.72 -51.646 C -84.717 -51.652 -84.713 -51.655 -84.71 -51.66 C -84.493 -52.015 -84.271 -52.383 -84.034 -52.752 C -84.03 -52.757 -84.027 -52.76 -84.024 -52.765 C -83.303 -53.883 -82.483 -55.07 -81.573 -56.329 C -76.35 -63.553 -71.892 -69.638 -68.055 -74.49 C -66.41 -76.57 -64.874 -78.415 -63.446 -80.041 C -60.948 -82.887 -58.783 -85.016 -56.858 -86.421 C -56.397 -86.758 -55.956 -87.058 -55.523 -87.311 C -54.314 -88.016 -53.212 -88.384 -52.203 -88.414 C -52.143 -88.416 -52.083 -88.411 -52.023 -88.41 C -51.803 -88.408 -51.581 -88.4 -51.369 -88.364 C -51.096 -88.318 -50.845 -88.242 -50.585 -88.14 C -50.456 -88.089 -50.314 -88.033 -50.188 -87.968 C -50.057 -87.9 -49.935 -87.828 -49.807 -87.746 C -49.798 -87.739 -49.791 -87.731 -49.782 -87.725 C -49.549 -87.572 -49.313 -87.392 -49.091 -87.188 C -48.856 -86.973 -48.627 -86.729 -48.403 -86.457 C -48.179 -86.185 -47.956 -85.885 -47.743 -85.555 C -47.633 -85.386 -47.529 -85.22 -47.423 -85.036 C -47.112 -84.5 -46.819 -83.895 -46.528 -83.229 C -46.526 -83.227 -46.519 -83.222 -46.516 -83.219 C -46.126 -82.329 -45.761 -81.319 -45.4 -80.194 C -45.399 -80.191 -45.391 -80.187 -45.388 -80.184 C -45.028 -79.058 -44.686 -77.804 -44.348 -76.438 C -43.806 -76.551 -43.265 -76.65 -42.72 -76.745 C -42.587 -76.769 -42.456 -76.793 -42.323 -76.814 C -42.188 -76.837 -42.05 -76.853 -41.915 -76.874 C -41.459 -76.945 -41.002 -77.019 -40.545 -77.078 C -40.457 -77.09 -40.368 -77.098 -40.279 -77.108 C -40.014 -77.143 -39.748 -77.17 -39.481 -77.2 C -39.064 -77.247 -38.646 -77.293 -38.229 -77.331 C -37.613 -77.387 -36.999 -77.434 -36.382 -77.47 C -36.312 -77.474 -36.241 -77.478 -36.17 -77.481 C -36.07 -77.487 -35.97 -77.499 -35.87 -77.504 C -35.282 -77.533 -34.695 -77.548 -34.105 -77.561 C -33.416 -77.575 -32.724 -77.575 -32.033 -77.568 C -31.391 -77.561 -30.745 -77.549 -30.102 -77.523 C -30.053 -77.521 -30.005 -77.529 -29.957 -77.527 C -29.852 -77.523 -29.747 -77.521 -29.642 -77.516 C -29.055 -77.488 -28.469 -77.443 -27.883 -77.402 C -38.603 -76.093 -46.64 -73.484 -47.999 -71.976 C -32.379 -73.045 -8.149 -67.378 14.406 -58.577 C 14.569 -58.105 14.722 -57.629 14.862 -57.132 C 15.403 -55.215 15.783 -53.112 15.992 -50.885 C 15.999 -50.805 16.008 -50.727 16.015 -50.646 C 16.026 -50.518 16.033 -50.381 16.043 -50.251 C 16.079 -49.798 16.1 -49.335 16.123 -48.871 C 16.145 -48.41 16.161 -47.947 16.17 -47.477 C 16.178 -47.062 16.184 -46.643 16.182 -46.222 C 16.181 -46.069 16.184 -45.916 16.182 -45.763 C 16.18 -45.579 16.174 -45.391 16.169 -45.206 C -1.016 -54.088 -31.437 -67.286 -51.266 -67.184 C -26.728 -58.281 0.07 -46.601 15.535 -37.77 C 15.008 -34.021 14.161 -30.137 13.005 -26.237 C -7.128 -40.557 -44.971 -60.775 -54.77 -62.923 C -36.602 -53.276 -5.112 -30.906 10.271 -18.379 C 8.886 -14.942 7.273 -11.559 5.436 -8.311 C -7.523 -20.586 -35.755 -42.102 -57.662 -59.065 C -46.943 -46.557 -10.503 -12.376 1.127 -1.539 C 1.03 -1.404 0.939 -1.267 0.842 -1.133 C 0.566 -0.752 0.282 -0.384 0 -0.01 Z" style="fill: rgb(172, 146, 146); fill-opacity: 1;"/>
      </g>
    </g>
    <g style="clip-path: url(#clippath5);">
      <g transform="translate(109.73 88.0508)">
        <path d="M 0 0 C 6.317 -15.515 -5.077 -2.193 6.317 -15.515 C 19.712 -31.176 24.541 -44.542 31.958 -42.221 C 32.015 -46.63 24.244 -42.572 16.011 -31.593 C 7.777 -20.613 -9.414 -1.435 0 0 Z" style="fill: rgb(199, 183, 183); fill-opacity: 1;"/>
      </g>
    </g>
  </g>
</svg>