<?xml version="1.0" encoding="utf-8"?>
<svg viewBox="0 1 35 31.256" xmlns="http://www.w3.org/2000/svg">
  <defs>
    <clipPath id="clip-1" transform="">
      <path d="M 0 1920 L 1080 1920 L 1080 0 L 0 0 Z" style="fill: none; clip-rule: nonzero;"/>
    </clipPath>
  </defs>
  <g transform="matrix(0.430069, 0, 0, -0.43207, -470.043152, 2.334554)">
    <g style="clip-path: url(#clip-1);" transform="matrix(1, 0, 0, 1, 122.109818, -93.818909)">
      <g transform="translate(995.0674 96.4082)">
        <path d="M 0 0 C -7.898 -1.051 -16.919 -3.16 -21.799 -9.407 C -24.477 -13.714 -24.158 -18.714 -24.229 -23.363 C -23.796 -32.646 -20.454 -41.506 -15.495 -49.379 C -18.854 -50.674 -23.05 -53.188 -22.555 -56.826 C -21.294 -61.238 -15.751 -62.817 -11.479 -64.38 C -2.459 -67.312 6.554 -70.668 16.227 -71.774 C 19.435 -72.18 23.603 -70.738 24.103 -67.498 C 24.616 -65.403 24.179 -63.29 23.699 -61.298 C 36.808 -56.216 47.523 -46.903 55.761 -36.671 C 59.12 -30.582 55.83 -23.862 51.936 -19.059 C 40.624 -4.967 20.215 2.576 0.001 0 Z" style="fill: rgb(0, 0, 0); fill-opacity: 1;"/>
      </g>
    </g>
    <g style="clip-path: url(#clip-1);" transform="matrix(1, 0, 0, 1, 122.109818, -93.818909)">
      <g transform="translate(981.8555 46.4277)">
        <path d="M 0 0 C 2.971 -13.373 -19.519 -6.087 2.971 -13.373 C 30.514 -22.296 38.99 -24.21 35.091 -10.513 C 47.9 -6.146 58.668 3.44 66.592 12.479 C 74.726 21.758 59.503 39.824 39.637 46.237 C 19.306 52.8 -6.052 47.101 -8.448 37.437 C -13.291 17.895 0 0 0 0" style="fill: rgb(255, 204, 170); fill-opacity: 1;"/>
      </g>
    </g>
    <g style="clip-path: url(#clip-1);" transform="matrix(1, 0, 0, 1, 122.109818, -93.818909)">
      <g transform="translate(1020.5371 92.9609)">
        <path d="M 0 0 C -1.596 0.482 -3.224 0.893 -4.862 1.231 C -10.607 -13.738 -23.469 -53.195 -23.457 -51.83 C -23.444 -50.339 -15.791 -13.263 -10.667 2.136 C -10.72 2.142 -10.771 2.154 -10.822 2.16 C -11.409 2.223 -11.999 2.271 -12.584 2.316 C -12.791 2.332 -12.996 2.352 -13.202 2.366 C -13.625 2.395 -14.042 2.418 -14.464 2.438 C -14.625 2.446 -14.787 2.464 -14.948 2.471 C -15.649 2.499 -16.361 2.506 -17.057 2.513 C -17.76 2.519 -18.454 2.517 -19.149 2.503 C -21.967 -10.212 -28.135 -38.063 -27.182 -50.516 C -30.209 -39.152 -27.789 -11.393 -26.558 1.927 C -26.9 1.88 -27.236 1.827 -27.574 1.774 C -27.912 1.722 -28.252 1.666 -28.585 1.607 C -29.25 1.491 -29.904 1.371 -30.547 1.233 C -31.189 1.097 -31.82 0.948 -32.438 0.792 C -32.747 0.714 -33.052 0.634 -33.354 0.551 C -33.656 0.468 -33.957 0.38 -34.252 0.292 C -34.453 -9.427 -36.649 -33.122 -31.021 -49.518 C -36.481 -41.878 -40.422 -21.02 -40.614 -2.25 C -40.833 -2.367 -41.054 -2.487 -41.263 -2.608 C -41.473 -2.729 -41.678 -2.853 -41.878 -2.977 C -41.924 -3.005 -41.973 -3.032 -42.019 -3.061 C -42.17 -3.156 -42.313 -3.258 -42.459 -3.355 C -42.649 -3.483 -42.837 -3.609 -43.018 -3.741 C -43.033 -3.752 -43.054 -3.76 -43.069 -3.771 C -43.233 -3.891 -43.387 -4.015 -43.542 -4.137 C -43.856 -4.384 -44.157 -4.638 -44.436 -4.895 C -44.46 -4.918 -44.482 -4.943 -44.507 -4.966 C -44.656 -5.106 -44.803 -5.246 -44.941 -5.39 C -45.061 -5.513 -45.177 -5.634 -45.287 -5.759 C -45.336 -5.813 -45.38 -5.87 -45.427 -5.925 C -45.497 -6.008 -45.563 -6.092 -45.63 -6.176 C -45.682 -6.241 -45.732 -6.307 -45.782 -6.372 C -45.813 -6.413 -45.847 -6.453 -45.876 -6.494 C -45.931 -6.569 -45.979 -6.649 -46.031 -6.725 C -46.136 -6.877 -46.234 -7.024 -46.327 -7.18 C -46.392 -7.289 -46.458 -7.404 -46.517 -7.516 C -46.542 -7.561 -46.569 -7.608 -46.593 -7.654 C -46.609 -7.691 -46.626 -7.729 -46.644 -7.767 C -46.701 -7.887 -46.753 -8.001 -46.804 -8.123 C -46.816 -8.149 -46.829 -8.178 -46.841 -8.204 C -46.895 -8.338 -46.941 -8.477 -46.986 -8.611 C -46.992 -8.625 -46.999 -8.64 -47.005 -8.652 C -47.053 -8.801 -47.093 -8.95 -47.131 -9.101 C -47.13 -9.112 -47.129 -9.123 -47.133 -9.135 C -46.361 -20.265 -43.149 -35.31 -34.339 -48.158 C -39.402 -44.19 -41.291 -40.353 -44.472 -35.768 C -44.385 -35.982 -44.302 -36.205 -44.214 -36.415 C -44.04 -36.827 -43.857 -37.228 -43.682 -37.62 C -43.528 -37.963 -43.377 -38.292 -43.224 -38.618 C -43.201 -38.665 -43.184 -38.718 -43.161 -38.765 C -43.097 -38.9 -43.025 -39.04 -42.962 -39.173 C -42.854 -39.397 -42.743 -39.625 -42.636 -39.841 C -42.471 -40.17 -42.309 -40.492 -42.147 -40.801 C -42.134 -40.827 -42.121 -40.856 -42.106 -40.883 C -42.06 -40.973 -42.01 -41.07 -41.963 -41.158 C -41.849 -41.373 -41.729 -41.582 -41.618 -41.785 C -41.375 -42.23 -41.156 -42.626 -40.931 -43.015 C -40.831 -43.188 -40.725 -43.375 -40.629 -43.536 C -40.615 -43.559 -40.597 -43.586 -40.584 -43.607 C -40.077 -44.458 -39.645 -45.14 -39.319 -45.628 C -39.3 -45.657 -39.269 -45.702 -39.25 -45.73 C -38.897 -46.254 -38.682 -46.542 -38.682 -46.542 C -40.339 -47.147 -39.372 -46.752 -40.339 -47.147 C -40.822 -47.346 -41.374 -47.588 -41.947 -47.873 C -42.329 -48.063 -42.715 -48.269 -43.1 -48.494 C -43.292 -48.606 -43.484 -48.731 -43.671 -48.853 C -43.858 -48.974 -44.042 -49.088 -44.221 -49.218 C -45.205 -49.93 -46.018 -50.761 -46.363 -51.691 C -46.426 -51.86 -46.48 -52.04 -46.51 -52.215 C -46.539 -52.39 -46.549 -52.558 -46.542 -52.738 C -46.541 -52.741 -46.545 -52.746 -46.546 -52.748 C -46.525 -53.198 -46.38 -53.668 -46.091 -54.15 C -45.975 -54.345 -45.833 -54.545 -45.667 -54.744 C -44.668 -55.939 -42.735 -57.219 -39.458 -58.553 C -39.454 -58.555 -39.45 -58.555 -39.447 -58.557 C -39.177 -58.666 -38.9 -58.782 -38.612 -58.893 C -38.608 -58.894 -38.604 -58.895 -38.602 -58.896 C -37.729 -59.23 -36.764 -59.565 -35.714 -59.906 C -29.688 -61.857 -24.573 -63.48 -20.304 -64.673 C -18.474 -65.184 -16.798 -65.607 -15.271 -65.955 C -12.601 -66.563 -10.401 -66.91 -8.615 -66.958 C -8.187 -66.97 -7.784 -66.969 -7.405 -66.945 C -6.345 -66.881 -5.472 -66.675 -4.779 -66.322 C -4.737 -66.301 -4.699 -66.277 -4.659 -66.255 C -4.511 -66.173 -4.363 -66.088 -4.232 -65.991 C -4.063 -65.867 -3.92 -65.734 -3.779 -65.585 C -3.71 -65.51 -3.633 -65.429 -3.57 -65.348 C -3.505 -65.264 -3.447 -65.181 -3.39 -65.09 C -3.386 -65.083 -3.383 -65.076 -3.38 -65.069 C -3.275 -64.902 -3.178 -64.72 -3.098 -64.53 C -3.014 -64.329 -2.942 -64.115 -2.885 -63.888 C -2.827 -63.661 -2.78 -63.419 -2.75 -63.164 C -2.734 -63.034 -2.722 -62.908 -2.713 -62.771 C -2.688 -62.371 -2.698 -61.94 -2.731 -61.479 C -2.731 -61.476 -2.728 -61.471 -2.727 -61.468 C -2.771 -60.85 -2.872 -60.177 -3.017 -59.444 C -3.017 -59.442 -3.013 -59.437 -3.012 -59.435 C -3.157 -58.7 -3.358 -57.905 -3.602 -57.053 C -3.196 -56.914 -2.796 -56.771 -2.395 -56.621 C -2.297 -56.585 -2.2 -56.551 -2.103 -56.514 C -2.003 -56.477 -1.905 -56.434 -1.806 -56.396 C -1.473 -56.268 -1.139 -56.14 -0.81 -56.005 C -0.745 -55.979 -0.683 -55.95 -0.619 -55.924 C -0.428 -55.845 -0.238 -55.763 -0.048 -55.682 C 0.25 -55.555 0.549 -55.426 0.845 -55.294 C 1.279 -55.099 1.711 -54.899 2.141 -54.693 C 2.19 -54.67 2.239 -54.646 2.288 -54.622 C 2.357 -54.589 2.43 -54.559 2.499 -54.524 C 2.906 -54.325 3.309 -54.118 3.712 -53.91 C 4.184 -53.666 4.651 -53.413 5.115 -53.157 C 5.547 -52.919 5.98 -52.676 6.406 -52.427 C 6.438 -52.408 6.474 -52.396 6.506 -52.377 C 6.575 -52.336 6.646 -52.296 6.715 -52.255 C 7.102 -52.026 7.482 -51.788 7.865 -51.552 C 0.164 -54.769 -6.171 -56.312 -7.61 -56.001 C 3.32 -50.866 17.748 -38.985 29.962 -26.041 C 29.908 -25.729 29.848 -25.419 29.771 -25.103 C 29.475 -23.88 29.006 -22.618 28.378 -21.352 C 28.355 -21.306 28.335 -21.261 28.312 -21.215 C 28.275 -21.142 28.232 -21.066 28.194 -20.993 C 28.062 -20.738 27.916 -20.483 27.771 -20.228 C 27.628 -19.973 27.479 -19.72 27.322 -19.464 C 27.185 -19.24 27.044 -19.014 26.896 -18.789 C 26.844 -18.708 26.793 -18.625 26.738 -18.544 C 26.674 -18.447 26.604 -18.348 26.538 -18.251 C 17.983 -29.276 1.97 -47.444 -11.474 -54.634 C 2.046 -40.911 16.133 -24.878 23.542 -14.509 C 21.892 -12.698 19.978 -10.932 17.851 -9.27 C 9.18 -24.278 -9.43 -48.909 -15.314 -53.637 C -6.358 -41.844 7.212 -18.384 13.289 -6.069 C 11.167 -4.738 8.908 -3.52 6.544 -2.455 C 2.02 -13.749 -9.644 -35.563 -18.601 -52.632 C -15.671 -42.031 -2.83 -10.451 1.293 -0.41 C 1.182 -0.374 1.072 -0.333 0.96 -0.297 C 0.643 -0.194 0.323 -0.102 0.003 -0.005 Z" style="fill: rgb(255, 179, 128); fill-opacity: 1;"/>
      </g>
    </g>
    <g style="clip-path: url(#clip-1);" transform="matrix(1, 0, 0, 1, 122.109818, -93.818909)">
      <g transform="translate(978.0986 41.3574)">
        <path d="M 0 0 C 9.627 -5.983 -2.676 -3.026 9.627 -5.983 C 24.091 -9.46 31.97 -14.839 36.184 -10.888 C 37.744 -13.224 31.089 -13.894 21.731 -11.034 C 12.374 -8.175 -5.87 -4.206 0 0" style="fill: rgb(255, 204, 170); fill-opacity: 1;"/>
      </g>
    </g>
  </g>
</svg>