<?xml version="1.0" encoding="utf-8"?>
<svg viewBox="0 0 35 35.346" xmlns="http://www.w3.org/2000/svg">
  <defs>
    <clipPath id="clippath5" transform="">
      <path d="M 0 1920 L 1080 1920 L 1080 0 L 0 0 Z" style="fill: none; clip-rule: nonzero;"/>
    </clipPath>
  </defs>
  <g transform="matrix(0.461735, 0, 0, -0.463882, 72.148811, 77.940475)">
    <g style="clip-path: url(#clippath5);" transform="matrix(1, 0, 0, 1, -203.764496, 8.561269)">
      <g transform="translate(55.7539 106.6006)">
        <path d="M 0 0 C 2.409 -14.693 -19.186 -5.979 2.409 -14.693 C 28.855 -25.365 37.024 -27.742 33.725 -12.663 C 46.33 -8.333 57.137 1.762 65.16 11.355 C 73.397 21.204 59.25 41.436 40.173 49.107 C 20.651 56.959 -4.195 51.601 -6.87 41.137 C -12.276 19.978 0 0 0 0" style="fill: rgb(199, 183, 183); fill-opacity: 1;"/>
      </g>
    </g>
    <g style="clip-path: url(#clippath5);" transform="matrix(1, 0, 0, 1, -203.764496, 8.561269)">
      <g transform="translate(95.0103 156.0635)">
        <path d="M 0 0 C -1.534 0.58 -3.101 1.084 -4.682 1.509 C -10.8 -14.631 -24.71 -57.249 -24.65 -55.759 C -24.584 -54.133 -15.82 -13.937 -10.291 2.692 C -10.341 2.701 -10.39 2.717 -10.44 2.725 C -11.008 2.813 -11.58 2.884 -12.147 2.954 C -12.347 2.979 -12.546 3.007 -12.746 3.029 C -13.156 3.075 -13.56 3.115 -13.969 3.151 C -14.126 3.166 -14.282 3.19 -14.439 3.203 C -15.119 3.258 -15.811 3.29 -16.486 3.32 C -17.169 3.352 -17.844 3.373 -18.52 3.381 C -21.712 -10.397 -28.703 -40.578 -28.223 -54.198 C -30.758 -41.696 -27.414 -11.488 -25.74 3.004 C -26.075 2.964 -26.403 2.918 -26.733 2.872 C -27.064 2.826 -27.396 2.776 -27.721 2.725 C -28.372 2.62 -29.013 2.511 -29.642 2.384 C -30.271 2.256 -30.889 2.115 -31.495 1.966 C -31.798 1.891 -32.097 1.813 -32.394 1.733 C -32.691 1.652 -32.986 1.567 -33.276 1.481 C -33.819 -9.117 -36.802 -34.898 -31.918 -52.979 C -36.951 -44.457 -40.035 -21.563 -39.55 -1.076 C -39.767 -1.197 -39.985 -1.32 -40.193 -1.445 C -40.401 -1.569 -40.604 -1.697 -40.804 -1.826 C -40.85 -1.855 -40.898 -1.883 -40.943 -1.913 C -41.094 -2.013 -41.237 -2.118 -41.382 -2.22 C -41.572 -2.353 -41.758 -2.484 -41.938 -2.621 C -41.955 -2.634 -41.975 -2.641 -41.99 -2.652 C -42.154 -2.777 -42.307 -2.907 -42.463 -3.035 C -42.777 -3.294 -43.078 -3.561 -43.358 -3.832 C -43.383 -3.856 -43.405 -3.884 -43.429 -3.907 C -43.58 -4.056 -43.727 -4.203 -43.867 -4.354 C -43.987 -4.485 -44.104 -4.613 -44.217 -4.746 C -44.265 -4.804 -44.311 -4.864 -44.358 -4.923 C -44.429 -5.011 -44.497 -5.101 -44.564 -5.189 C -44.617 -5.259 -44.669 -5.329 -44.72 -5.398 C -44.751 -5.442 -44.785 -5.485 -44.815 -5.528 C -44.871 -5.608 -44.921 -5.694 -44.975 -5.775 C -45.081 -5.937 -45.183 -6.096 -45.277 -6.261 C -45.345 -6.379 -45.413 -6.502 -45.474 -6.621 C -45.5 -6.67 -45.529 -6.721 -45.553 -6.771 C -45.57 -6.811 -45.588 -6.851 -45.606 -6.891 C -45.667 -7.02 -45.721 -7.144 -45.775 -7.274 C -45.788 -7.304 -45.801 -7.333 -45.814 -7.362 C -45.871 -7.505 -45.921 -7.656 -45.97 -7.802 C -45.976 -7.815 -45.983 -7.831 -45.989 -7.846 C -46.042 -8.006 -46.085 -8.167 -46.127 -8.33 C -46.127 -8.343 -46.126 -8.354 -46.131 -8.367 C -45.78 -20.538 -43.196 -37.063 -35.094 -51.384 C -39.873 -46.882 -41.571 -42.63 -44.498 -37.52 C -44.421 -37.757 -44.348 -38.002 -44.27 -38.233 C -44.116 -38.69 -43.953 -39.133 -43.796 -39.567 C -43.66 -39.946 -43.524 -40.311 -43.386 -40.671 C -43.366 -40.724 -43.351 -40.781 -43.332 -40.833 C -43.273 -40.983 -43.209 -41.139 -43.152 -41.286 C -43.055 -41.534 -42.956 -41.786 -42.859 -42.025 C -42.711 -42.391 -42.564 -42.748 -42.418 -43.09 C -42.406 -43.119 -42.395 -43.151 -42.382 -43.181 C -42.34 -43.28 -42.294 -43.389 -42.252 -43.486 C -42.149 -43.724 -42.04 -43.957 -41.939 -44.182 C -41.719 -44.677 -41.521 -45.115 -41.316 -45.547 C -41.225 -45.739 -41.128 -45.946 -41.041 -46.126 C -41.029 -46.15 -41.012 -46.182 -41 -46.206 C -40.538 -47.151 -40.142 -47.909 -39.843 -48.453 C -39.825 -48.486 -39.797 -48.536 -39.78 -48.567 C -39.456 -49.15 -39.256 -49.472 -39.256 -49.472 C -40.888 -50.077 -39.935 -49.679 -40.888 -50.077 C -41.365 -50.276 -41.911 -50.522 -42.478 -50.813 C -42.855 -51.007 -43.238 -51.22 -43.619 -51.452 C -43.81 -51.568 -44.001 -51.698 -44.188 -51.824 C -44.374 -51.95 -44.557 -52.068 -44.735 -52.204 C -45.717 -52.947 -46.536 -53.827 -46.906 -54.831 C -46.973 -55.013 -47.032 -55.206 -47.067 -55.396 C -47.102 -55.586 -47.117 -55.769 -47.116 -55.967 C -47.116 -55.97 -47.12 -55.975 -47.121 -55.978 C -47.117 -56.469 -46.992 -56.986 -46.729 -57.523 C -46.623 -57.739 -46.493 -57.961 -46.338 -58.185 C -45.41 -59.523 -43.578 -60.984 -40.441 -62.552 C -40.437 -62.554 -40.434 -62.555 -40.43 -62.556 C -40.172 -62.686 -39.907 -62.821 -39.631 -62.951 C -39.627 -62.953 -39.624 -62.954 -39.62 -62.955 C -38.784 -63.35 -37.858 -63.748 -36.851 -64.155 C -31.065 -66.49 -26.152 -68.435 -22.045 -69.88 C -20.285 -70.499 -18.672 -71.02 -17.201 -71.45 C -14.627 -72.205 -12.502 -72.658 -10.768 -72.771 C -10.352 -72.798 -9.961 -72.811 -9.592 -72.798 C -8.559 -72.764 -7.703 -72.568 -7.018 -72.207 C -6.977 -72.186 -6.938 -72.16 -6.898 -72.138 C -6.751 -72.054 -6.605 -71.966 -6.475 -71.864 C -6.306 -71.734 -6.162 -71.595 -6.02 -71.437 C -5.949 -71.357 -5.872 -71.271 -5.808 -71.185 C -5.741 -71.096 -5.683 -71.007 -5.623 -70.91 C -5.62 -70.902 -5.617 -70.896 -5.613 -70.888 C -5.505 -70.709 -5.404 -70.514 -5.32 -70.309 C -5.23 -70.093 -5.153 -69.861 -5.089 -69.615 C -5.026 -69.369 -4.971 -69.107 -4.933 -68.831 C -4.913 -68.688 -4.896 -68.552 -4.882 -68.401 C -4.844 -67.967 -4.839 -67.496 -4.854 -66.991 C -4.854 -66.988 -4.851 -66.983 -4.849 -66.98 C -4.87 -66.305 -4.944 -65.566 -5.059 -64.763 C -5.059 -64.76 -5.055 -64.754 -5.054 -64.751 C -5.169 -63.945 -5.336 -63.071 -5.542 -62.132 C -5.143 -61.995 -4.749 -61.852 -4.353 -61.703 C -4.257 -61.667 -4.162 -61.632 -4.065 -61.596 C -3.967 -61.558 -3.871 -61.516 -3.773 -61.477 C -3.445 -61.349 -3.116 -61.22 -2.791 -61.084 C -2.728 -61.058 -2.666 -61.029 -2.603 -61.003 C -2.414 -60.923 -2.227 -60.839 -2.039 -60.757 C -1.745 -60.628 -1.45 -60.499 -1.158 -60.364 C -0.728 -60.166 -0.302 -59.964 0.123 -59.753 C 0.172 -59.729 0.22 -59.705 0.269 -59.681 C 0.338 -59.646 0.409 -59.616 0.477 -59.581 C 0.881 -59.378 1.279 -59.166 1.678 -58.952 C 2.145 -58.701 2.608 -58.441 3.069 -58.178 C 3.497 -57.933 3.926 -57.682 4.349 -57.425 C 4.381 -57.406 4.416 -57.393 4.448 -57.373 C 4.517 -57.331 4.586 -57.29 4.655 -57.248 C 5.04 -57.012 5.418 -56.765 5.798 -56.52 C -1.801 -59.769 -8.012 -61.236 -9.4 -60.85 C 1.406 -55.617 15.852 -43.143 28.185 -29.434 C 28.144 -29.092 28.096 -28.751 28.033 -28.402 C 27.789 -27.059 27.378 -25.665 26.814 -24.262 C 26.793 -24.212 26.775 -24.162 26.754 -24.111 C 26.721 -24.03 26.682 -23.947 26.647 -23.865 C 26.528 -23.582 26.396 -23.3 26.265 -23.015 C 26.133 -22.732 25.998 -22.451 25.855 -22.167 C 25.729 -21.918 25.6 -21.666 25.466 -21.416 C 25.417 -21.326 25.371 -21.234 25.321 -21.144 C 25.261 -21.035 25.197 -20.925 25.136 -20.816 C 16.429 -32.557 0.216 -51.838 -13.105 -59.226 C 0.523 -44.711 14.788 -27.695 22.359 -16.631 C 20.819 -14.6 19.023 -12.607 17.016 -10.722 C 8.052 -26.804 -10.914 -53.049 -16.802 -58.008 C -7.677 -45.443 6.351 -20.306 12.697 -7.074 C 10.682 -5.551 8.53 -4.144 6.271 -2.901 C 1.47 -15.072 -10.645 -38.478 -19.96 -56.8 C -16.733 -45.331 -3.125 -11.308 1.242 -0.492 C 1.134 -0.448 1.03 -0.4 0.922 -0.357 C 0.617 -0.234 0.31 -0.122 0.003 -0.006 Z" style="fill: rgb(172, 146, 146); fill-opacity: 1;"/>
      </g>
    </g>
    <g style="clip-path: url(#clippath5);" transform="matrix(1, 0, 0, 1, -203.764496, 8.561269)">
      <g transform="translate(51.9219 101.1963)">
        <path d="M 0 0 C 9.142 -6.856 -2.708 -3.212 9.142 -6.856 C 23.073 -11.141 30.537 -17.277 34.774 -13.109 C 36.207 -15.711 29.715 -16.217 20.724 -12.779 C 11.733 -9.341 -5.855 -4.391 0 0 Z" style="fill: rgb(199, 183, 183); fill-opacity: 1;"/>
      </g>
    </g>
  </g>
</svg>