<?xml version="1.0" encoding="utf-8"?>
<svg viewBox="0 0 35 41.526" xmlns="http://www.w3.org/2000/svg">
  <defs>
    <clipPath id="clippath5" transform="">
      <path d="M 0 1920 L 1080 1920 L 1080 0 L 0 0 Z" style="fill: none; clip-rule: nonzero;"/>
    </clipPath>
  </defs>
  <g transform="matrix(0.530787, 0, 0, -0.533256, -513.232483, -9.237035)">
    <g style="clip-path: url(#clippath5);" transform="matrix(1, 0, 0, 1, 88.927238, -104.193947)">
      <g transform="translate(882.8525 60.5215)">
        <path d="M 0 0 C -3.199 -6.405 -6.207 -14.274 -4.209 -21.634 C -2.489 -26.206 1.221 -29.012 4.487 -31.89 C 11.295 -37.213 19.256 -40.157 27.324 -41.319 C 26.565 -44.559 26.255 -49.151 29.086 -51 C 32.849 -52.761 36.738 -49.673 39.981 -47.503 C 46.569 -42.697 53.455 -38.155 59.073 -31.765 C 60.964 -29.668 62.022 -25.749 59.972 -23.415 C 58.74 -21.767 57.021 -20.803 55.367 -19.941 C 58.307 -7.281 57.047 6.202 53.896 18.436 C 51.25 24.589 44.835 26.269 39.479 26.344 C 23.821 26.647 8.27 16.327 0.001 0.002 Z" style="fill: rgb(0, 0, 0); fill-opacity: 1;"/>
      </g>
    </g>
    <g style="clip-path: url(#clippath5);" transform="matrix(1, 0, 0, 1, 88.927238, -104.193947)">
      <g transform="translate(911.7441 20.5029)">
        <path d="M 0 0 C 10.98 -5.956 -5.429 -17.951 10.98 -5.956 C 31.076 8.734 36.669 13.761 24.994 19.236 C 28.293 31.244 26.864 44.932 24.404 56.21 C 21.879 67.788 1.445 67.651 -13.033 57.04 C -27.85 46.183 -36.47 24.202 -30.805 16.58 C -19.347 1.169 0 0 0 0" style="fill: rgb(255, 204, 170); fill-opacity: 1;"/>
      </g>
    </g>
    <g style="clip-path: url(#clippath5);" transform="matrix(1, 0, 0, 1, 88.927238, -104.193947)">
      <g transform="translate(898.0234 77.0264)">
        <path d="M 0 0 C -1.139 -0.873 -2.244 -1.812 -3.303 -2.803 C 4.457 -16.095 26.052 -49.462 25.088 -48.624 C 24.035 -47.708 1.53 -19.591 -6.845 -6.492 C -6.875 -6.527 -6.91 -6.556 -6.94 -6.591 C -7.277 -6.98 -7.605 -7.383 -7.931 -7.782 C -8.045 -7.923 -8.162 -8.062 -8.274 -8.203 C -8.506 -8.495 -8.731 -8.784 -8.956 -9.08 C -9.043 -9.193 -9.136 -9.301 -9.222 -9.415 C -9.592 -9.91 -9.952 -10.425 -10.304 -10.929 C -10.66 -11.438 -11.006 -11.947 -11.343 -12.463 C -3.722 -22.246 12.975 -43.674 22.293 -50.545 C 12.712 -45.851 -5.792 -27.216 -14.635 -18.223 C -14.772 -18.502 -14.902 -18.779 -15.034 -19.058 C -15.165 -19.337 -15.296 -19.619 -15.421 -19.896 C -15.67 -20.453 -15.912 -21.005 -16.136 -21.557 C -16.359 -22.109 -16.568 -22.66 -16.766 -23.206 C -16.865 -23.479 -16.96 -23.751 -17.053 -24.022 C -17.145 -24.293 -17.232 -24.565 -17.317 -24.835 C -10.516 -30.887 5.213 -46.89 19.667 -52.743 C 11.514 -52.087 -5.267 -42.29 -18.69 -31.025 C -18.717 -31.257 -18.741 -31.49 -18.761 -31.717 C -18.779 -31.943 -18.794 -32.167 -18.806 -32.39 C -18.809 -32.44 -18.813 -32.492 -18.816 -32.543 C -18.824 -32.712 -18.824 -32.878 -18.827 -33.044 C -18.832 -33.261 -18.835 -33.475 -18.832 -33.686 C -18.832 -33.705 -18.837 -33.724 -18.837 -33.742 C -18.834 -33.935 -18.823 -34.122 -18.813 -34.31 C -18.795 -34.689 -18.766 -35.063 -18.722 -35.423 C -18.718 -35.455 -18.71 -35.486 -18.706 -35.518 C -18.682 -35.713 -18.655 -35.904 -18.623 -36.093 C -18.595 -36.254 -18.567 -36.413 -18.533 -36.57 C -18.519 -36.638 -18.501 -36.705 -18.485 -36.772 C -18.461 -36.874 -18.435 -36.974 -18.408 -37.073 C -18.388 -37.15 -18.367 -37.228 -18.345 -37.304 C -18.331 -37.352 -18.319 -37.4 -18.306 -37.446 C -18.279 -37.532 -18.247 -37.616 -18.219 -37.7 C -18.163 -37.869 -18.107 -38.03 -18.044 -38.192 C -17.998 -38.307 -17.949 -38.425 -17.9 -38.535 C -17.88 -38.581 -17.86 -38.63 -17.839 -38.675 C -17.821 -38.71 -17.803 -38.745 -17.785 -38.779 C -17.729 -38.896 -17.674 -39.003 -17.612 -39.114 C -17.6 -39.139 -17.586 -39.165 -17.573 -39.19 C -17.506 -39.311 -17.43 -39.43 -17.356 -39.544 C -17.35 -39.557 -17.343 -39.57 -17.337 -39.582 C -17.255 -39.708 -17.169 -39.828 -17.081 -39.946 C -17.072 -39.953 -17.064 -39.959 -17.059 -39.969 C -8.77 -46.169 3.519 -52.965 17.044 -54.339 C 11.697 -55.626 8.028 -54.673 3.184 -54.21 C 3.38 -54.276 3.579 -54.351 3.772 -54.414 C 4.151 -54.538 4.527 -54.648 4.894 -54.758 C 5.213 -54.854 5.523 -54.943 5.831 -55.029 C 5.876 -55.042 5.922 -55.061 5.966 -55.073 C 6.095 -55.108 6.229 -55.142 6.356 -55.176 C 6.569 -55.233 6.786 -55.291 6.993 -55.343 C 7.31 -55.424 7.619 -55.5 7.919 -55.57 C 7.944 -55.576 7.971 -55.585 7.997 -55.591 C 8.085 -55.61 8.179 -55.633 8.265 -55.652 C 8.474 -55.7 8.683 -55.739 8.882 -55.782 C 9.32 -55.875 9.71 -55.956 10.099 -56.027 C 10.271 -56.06 10.457 -56.095 10.62 -56.123 C 10.643 -56.127 10.671 -56.131 10.693 -56.135 C 11.55 -56.281 12.25 -56.38 12.76 -56.438 C 12.79 -56.442 12.838 -56.446 12.866 -56.45 C 13.414 -56.511 13.727 -56.527 13.727 -56.527 C 13.329 -58.106 13.531 -57.16 13.329 -58.106 C 13.228 -58.579 13.125 -59.13 13.04 -59.722 C 12.984 -60.116 12.938 -60.522 12.906 -60.94 C 12.891 -61.149 12.883 -61.365 12.875 -61.576 C 12.867 -61.786 12.857 -61.99 12.86 -62.199 C 12.874 -63.351 13.059 -64.449 13.546 -65.267 C 13.635 -65.415 13.735 -65.564 13.845 -65.691 C 13.954 -65.819 14.068 -65.929 14.2 -66.033 C 14.202 -66.034 14.204 -66.04 14.205 -66.042 C 14.535 -66.301 14.941 -66.479 15.429 -66.562 C 15.625 -66.595 15.837 -66.613 16.062 -66.613 C 17.41 -66.609 19.283 -65.976 21.868 -64.394 C 21.871 -64.392 21.873 -64.39 21.876 -64.388 C 22.089 -64.258 22.31 -64.126 22.531 -63.982 L 22.54 -63.977 C 23.213 -63.542 23.933 -63.042 24.699 -62.481 C 29.095 -59.269 32.803 -56.52 35.782 -54.125 C 37.059 -53.1 38.197 -52.134 39.207 -51.23 C 40.973 -49.649 42.317 -48.254 43.244 -46.979 C 43.466 -46.673 43.666 -46.379 43.84 -46.087 C 44.323 -45.273 44.613 -44.511 44.709 -43.791 C 44.715 -43.748 44.717 -43.705 44.721 -43.662 C 44.737 -43.505 44.75 -43.345 44.747 -43.19 C 44.743 -42.992 44.721 -42.807 44.685 -42.613 C 44.667 -42.517 44.646 -42.411 44.621 -42.316 C 44.594 -42.218 44.563 -42.125 44.528 -42.027 C 44.525 -42.021 44.521 -42.015 44.519 -42.009 C 44.452 -41.83 44.371 -41.648 44.276 -41.475 C 44.176 -41.291 44.06 -41.109 43.927 -40.929 C 43.794 -40.749 43.646 -40.567 43.48 -40.391 C 43.396 -40.3 43.313 -40.214 43.219 -40.124 C 42.947 -39.863 42.637 -39.609 42.292 -39.353 C 42.291 -39.351 42.289 -39.345 42.287 -39.343 C 41.826 -38.999 41.298 -38.664 40.705 -38.325 L 40.7 -38.315 C 40.106 -37.976 39.441 -37.64 38.715 -37.298 C 38.819 -36.918 38.917 -36.539 39.012 -36.155 C 39.035 -36.062 39.059 -35.97 39.081 -35.877 C 39.104 -35.781 39.123 -35.684 39.146 -35.588 C 39.221 -35.268 39.297 -34.946 39.366 -34.623 C 39.379 -34.561 39.391 -34.497 39.403 -34.435 C 39.442 -34.247 39.479 -34.059 39.517 -33.87 C 39.575 -33.575 39.633 -33.279 39.687 -32.983 C 39.766 -32.547 39.84 -32.11 39.908 -31.672 C 39.916 -31.621 39.924 -31.571 39.931 -31.521 C 39.942 -31.45 39.956 -31.379 39.967 -31.308 C 40.029 -30.889 40.084 -30.47 40.137 -30.049 C 40.198 -29.556 40.253 -29.062 40.303 -28.566 C 40.35 -28.105 40.394 -27.643 40.43 -27.181 C 40.433 -27.146 40.44 -27.111 40.443 -27.077 C 40.449 -27.001 40.456 -26.926 40.461 -26.851 C 40.492 -26.429 40.514 -26.006 40.537 -25.583 C 38.974 -33.161 36.904 -38.725 35.966 -39.587 C 37.779 -28.485 36.55 -10.73 33.46 6.054 C 33.212 6.205 32.961 6.349 32.698 6.485 C 31.683 7.012 30.552 7.437 29.339 7.748 C 29.295 7.759 29.253 7.771 29.209 7.782 C 29.139 7.8 29.063 7.813 28.992 7.831 C 28.745 7.89 28.491 7.938 28.237 7.988 C 27.984 8.038 27.73 8.082 27.471 8.123 C 27.243 8.159 27.012 8.193 26.779 8.223 C 26.695 8.233 26.611 8.247 26.526 8.257 C 26.425 8.269 26.32 8.277 26.218 8.288 C 29.773 -4.658 34.675 -27.392 33.064 -41.578 C 30.073 -23.366 25.727 -3.337 22.063 8.374 C 19.953 8.27 17.743 7.945 15.501 7.402 C 21.826 -8.05 30.021 -36.606 30.438 -43.776 C 26.538 -30.07 16.658 -5.905 10.949 6.016 C 8.943 5.274 6.949 4.366 5.013 3.286 C 10.772 -6.881 20.436 -28.652 28.083 -45.565 C 22.019 -36.984 6.008 -8.418 0.938 0.694 C 0.856 0.635 0.773 0.58 0.691 0.521 C 0.46 0.351 0.234 0.174 0.006 -0.001 Z" style="fill: rgb(255, 179, 128); fill-opacity: 1;"/>
      </g>
    </g>
    <g style="clip-path: url(#clippath5);" transform="matrix(1, 0, 0, 1, 88.927238, -104.193947)">
      <g transform="translate(913.4678 14.6797)">
        <path d="M 0 0 C 9.059 3.394 0.812 -3.794 9.059 3.394 C 18.752 11.843 26.507 14.327 25.807 19.806 C 28.245 19.526 25.396 14.259 18.691 9.163 C 11.986 4.068 0.054 -6.843 0 0" style="fill: rgb(255, 204, 170); fill-opacity: 1;"/>
      </g>
    </g>
  </g>
</svg>