<?xml version="1.0" encoding="utf-8"?>
<svg viewBox="0 0 35 37.582" xmlns="http://www.w3.org/2000/svg">
  <defs>
    <clipPath id="clippath5" transform="">
      <path d="M 0 1920 L 1080 1920 L 1080 0 L 0 0 Z" style="fill: none; clip-rule: nonzero;"/>
    </clipPath>
  </defs>
  <g style="" transform="matrix(0.422643, 0, 0, -0.37747, -484.576691, 38.49823)">
    <g style="clip-path: url(#clippath5);" transform="matrix(1, 0, 0, 1, 223.589966, -25.77861)">
      <g transform="translate(938.1123 117.9023)">
        <path d="M 0 0 C -6.606 -5.186 -13.717 -12.298 -15.131 -22.816 C -15.488 -29.736 -12.819 -36.116 -10.667 -42.227 C -5.853 -54.146 1.376 -64.109 9.591 -72.002 C 7.185 -75.315 4.608 -80.628 6.788 -85.142 C 10.024 -90.299 15.765 -89.685 20.353 -89.664 C 29.865 -89.139 39.574 -89.174 48.805 -85.949 C 51.885 -84.93 54.948 -81.034 53.854 -76.559 C 53.318 -73.573 51.917 -71.023 50.537 -68.652 C 59.908 -55.682 65.112 -38.34 67.647 -20.993 C 67.769 -11.414 61.605 -4.223 55.812 0.174 C 38.919 13.125 16.961 13.127 0.001 0.001 Z" style="fill: rgb(0, 0, 0); fill-opacity: 1;"/>
      </g>
    </g>
    <g style="clip-path: url(#clippath5);" transform="matrix(1, 0, 0, 1, 223.589966, -25.77861)">
      <g transform="translate(950.0439 46.2168)">
        <path d="M 0 0 C 9.046 -16.04 -14.662 -17.378 9.046 -16.04 C 38.08 -14.4 46.619 -12.809 36.583 3.206 C 46.027 15.098 51.147 32.821 53.969 48.458 C 56.866 64.51 34.56 80.767 13.628 79.554 C -7.793 78.313 -27.892 58.622 -25.443 44.837 C -20.487 16.964 0 -0.001 0 -0.001 Z" style="fill: rgb(255, 204, 170); fill-opacity: 1;"/>
      </g>
    </g>
    <g style="clip-path: url(#clippath5);" transform="matrix(1, 0, 0, 1, 223.589966, -25.77861)">
      <g transform="translate(962.6719 125.6963)">
        <path d="M 0 0 C -1.666 -0.141 -3.326 -0.39 -4.962 -0.739 C -2.997 -23.073 4.235 -80.84 3.595 -79.049 C 2.896 -77.095 -7.888 -24.954 -10.616 -2.359 C -10.666 -2.378 -10.718 -2.385 -10.768 -2.403 C -11.325 -2.604 -11.879 -2.828 -12.427 -3.05 C -12.62 -3.128 -12.814 -3.202 -13.007 -3.283 C -13.401 -3.45 -13.787 -3.62 -14.176 -3.798 C -14.326 -3.865 -14.479 -3.92 -14.628 -3.989 C -15.272 -4.291 -15.916 -4.626 -16.544 -4.953 C -17.18 -5.284 -17.805 -5.622 -18.423 -5.976 C -14.898 -23.949 -7.175 -63.318 -0.383 -79.13 C -8.522 -65.744 -19.574 -28.304 -24.813 -10.306 C -25.1 -10.532 -25.377 -10.764 -25.656 -10.996 C -25.935 -11.229 -26.215 -11.465 -26.486 -11.701 C -27.029 -12.175 -27.561 -12.648 -28.073 -13.137 C -28.587 -13.626 -29.083 -14.125 -29.564 -14.628 C -29.805 -14.879 -30.041 -15.131 -30.273 -15.386 C -30.506 -15.641 -30.734 -15.899 -30.958 -16.157 C -26.507 -28.953 -17.191 -60.976 -4.313 -79.681 C -12.867 -72.334 -26.354 -46.982 -35.472 -22.55 C -35.612 -22.81 -35.753 -23.072 -35.884 -23.331 C -36.016 -23.591 -36.141 -23.851 -36.262 -24.109 C -36.29 -24.17 -36.32 -24.228 -36.349 -24.288 C -36.438 -24.486 -36.52 -24.687 -36.604 -24.885 C -36.715 -25.144 -36.823 -25.399 -36.923 -25.658 C -36.932 -25.682 -36.947 -25.7 -36.956 -25.724 C -37.046 -25.959 -37.125 -26.194 -37.207 -26.429 C -37.372 -26.903 -37.521 -27.38 -37.649 -27.852 C -37.66 -27.893 -37.668 -27.937 -37.679 -27.979 C -37.747 -28.234 -37.812 -28.487 -37.868 -28.741 C -37.917 -28.96 -37.964 -29.174 -38.004 -29.392 C -38.021 -29.485 -38.034 -29.581 -38.05 -29.676 C -38.073 -29.817 -38.093 -29.96 -38.113 -30.102 C -38.129 -30.212 -38.144 -30.322 -38.157 -30.432 C -38.165 -30.5 -38.176 -30.568 -38.183 -30.637 C -38.196 -30.762 -38.202 -30.889 -38.213 -31.013 C -38.234 -31.262 -38.253 -31.503 -38.262 -31.749 C -38.269 -31.924 -38.272 -32.106 -38.273 -32.28 C -38.273 -32.352 -38.275 -32.427 -38.274 -32.498 C -38.272 -32.556 -38.27 -32.612 -38.267 -32.669 C -38.262 -32.854 -38.254 -33.029 -38.242 -33.213 C -38.24 -33.254 -38.238 -33.296 -38.236 -33.337 C -38.222 -33.537 -38.197 -33.741 -38.173 -33.939 C -38.172 -33.96 -38.171 -33.981 -38.17 -34.001 C -38.143 -34.219 -38.107 -34.434 -38.069 -34.647 C -38.063 -34.662 -38.058 -34.677 -38.056 -34.693 C -32.058 -48.864 -21.997 -66.972 -7.946 -79.506 C -14.394 -76.767 -17.922 -72.664 -22.969 -68.209 C -22.788 -68.447 -22.607 -68.698 -22.428 -68.93 C -22.075 -69.385 -21.72 -69.82 -21.375 -70.248 C -21.074 -70.621 -20.78 -70.978 -20.486 -71.33 C -20.444 -71.381 -20.403 -71.44 -20.361 -71.491 C -20.238 -71.638 -20.107 -71.786 -19.987 -71.929 C -19.782 -72.17 -19.575 -72.413 -19.375 -72.644 C -19.07 -72.995 -18.771 -73.337 -18.479 -73.663 C -18.453 -73.69 -18.429 -73.723 -18.403 -73.75 C -18.317 -73.845 -18.226 -73.948 -18.142 -74.041 C -17.937 -74.266 -17.729 -74.481 -17.533 -74.693 C -17.102 -75.158 -16.717 -75.569 -16.329 -75.969 C -16.156 -76.146 -15.972 -76.339 -15.809 -76.504 C -15.786 -76.526 -15.756 -76.553 -15.734 -76.575 C -14.873 -77.442 -14.159 -78.124 -13.633 -78.604 C -13.602 -78.634 -13.553 -78.678 -13.522 -78.705 C -12.956 -79.219 -12.624 -79.49 -12.624 -79.49 C -13.826 -81.082 -13.145 -80.099 -13.826 -81.082 C -14.167 -81.574 -14.548 -82.158 -14.929 -82.807 C -15.182 -83.239 -15.43 -83.695 -15.669 -84.175 C -15.788 -84.415 -15.901 -84.671 -16.013 -84.919 C -16.123 -85.168 -16.233 -85.406 -16.333 -85.662 C -16.879 -87.067 -17.214 -88.546 -17.081 -89.929 C -17.058 -90.18 -17.021 -90.44 -16.964 -90.684 C -16.907 -90.926 -16.836 -91.149 -16.743 -91.383 C -16.741 -91.386 -16.743 -91.394 -16.742 -91.397 C -16.51 -91.976 -16.154 -92.52 -15.664 -93.011 C -15.467 -93.208 -15.245 -93.4 -15 -93.581 C -13.531 -94.66 -11.183 -95.399 -7.599 -95.561 C -7.594 -95.561 -7.591 -95.56 -7.587 -95.56 C -7.292 -95.572 -6.988 -95.591 -6.676 -95.596 C -6.672 -95.596 -6.668 -95.595 -6.664 -95.595 C -5.72 -95.61 -4.691 -95.582 -3.585 -95.52 C 2.767 -95.161 8.143 -94.813 12.553 -94.308 C 14.442 -94.092 16.152 -93.837 17.69 -93.555 C 20.385 -93.06 22.528 -92.45 24.158 -91.65 C 24.55 -91.459 24.91 -91.264 25.241 -91.05 C 26.165 -90.453 26.852 -89.763 27.307 -88.968 C 27.334 -88.92 27.357 -88.87 27.383 -88.821 C 27.478 -88.644 27.569 -88.46 27.641 -88.271 C 27.733 -88.027 27.8 -87.784 27.854 -87.521 C 27.882 -87.39 27.912 -87.246 27.931 -87.11 C 27.949 -86.969 27.961 -86.833 27.97 -86.687 C 27.97 -86.676 27.969 -86.666 27.969 -86.655 C 27.983 -86.387 27.984 -86.101 27.966 -85.814 C 27.946 -85.511 27.908 -85.197 27.852 -84.872 C 27.795 -84.548 27.722 -84.209 27.628 -83.862 C 27.58 -83.685 27.531 -83.513 27.474 -83.329 C 27.306 -82.795 27.091 -82.237 26.841 -81.649 C 26.84 -81.646 26.841 -81.638 26.841 -81.634 C 26.506 -80.848 26.095 -80.017 25.615 -79.13 C 25.614 -79.127 25.614 -79.117 25.614 -79.114 C 25.134 -78.226 24.574 -77.284 23.949 -76.286 C 24.248 -75.91 24.539 -75.528 24.829 -75.141 C 24.9 -75.047 24.971 -74.954 25.041 -74.859 C 25.112 -74.762 25.181 -74.659 25.252 -74.562 C 25.49 -74.234 25.729 -73.905 25.962 -73.57 C 26.007 -73.505 26.05 -73.438 26.095 -73.372 C 26.229 -73.177 26.36 -72.978 26.493 -72.779 C 26.7 -72.47 26.908 -72.158 27.111 -71.842 C 27.409 -71.377 27.703 -70.908 27.991 -70.432 C 28.024 -70.377 28.057 -70.322 28.09 -70.268 C 28.137 -70.19 28.187 -70.116 28.233 -70.038 C 28.505 -69.581 28.769 -69.116 29.031 -68.649 C 29.339 -68.103 29.64 -67.547 29.936 -66.988 C 30.21 -66.468 30.484 -65.941 30.749 -65.411 C 30.769 -65.371 30.795 -65.337 30.814 -65.297 C 30.857 -65.21 30.901 -65.124 30.944 -65.037 C 31.184 -64.552 31.413 -64.057 31.645 -63.563 C 26.248 -71.484 21.283 -76.559 19.841 -76.849 C 27.229 -64.861 34.548 -42.371 39.368 -19.561 C 39.172 -19.179 38.97 -18.803 38.749 -18.426 C 37.9 -16.972 36.877 -15.549 35.709 -14.197 C 35.667 -14.148 35.627 -14.1 35.584 -14.051 C 35.516 -13.974 35.441 -13.896 35.373 -13.818 C 35.132 -13.549 34.88 -13.286 34.627 -13.021 C 34.376 -12.758 34.121 -12.499 33.859 -12.241 C 33.629 -12.015 33.394 -11.787 33.155 -11.564 C 33.068 -11.484 32.983 -11.4 32.896 -11.32 C 32.791 -11.225 32.682 -11.129 32.575 -11.034 C 30.133 -29.571 24.383 -61.042 15.713 -76.928 C 21.337 -52.469 26.372 -24.718 28.097 -7.591 C 25.748 -6.022 23.185 -4.638 20.479 -3.494 C 19.83 -27.291 14.824 -68.461 11.782 -77.479 C 14.22 -57.746 15.25 -20.54 14.85 -1.514 C 12.306 -0.801 9.692 -0.298 7.058 -0.048 C 8.369 -16.991 8.271 -51.124 8.346 -77.753 C 5.931 -62.486 2.434 -15.022 1.359 0.088 C 1.241 0.082 1.123 0.082 1.005 0.075 C 0.671 0.056 0.339 0.023 0.005 -0.005 Z" style="fill: rgb(255, 179, 128); fill-opacity: 1;"/>
      </g>
    </g>
    <g style="clip-path: url(#clippath5);" transform="matrix(1, 0, 0, 1, 223.55249, -25.77861)">
      <g transform="translate(949.0791 37.7783)">
        <path d="M 0 0 C 11.515 -3.171 -0.965 -5.248 11.515 -3.171 C 26.185 -0.729 35.837 -3.954 37.746 3.244 C 40.264 0.945 34.595 -3.145 24.812 -3.926 C 15.03 -4.708 -3.276 -8.33 0.001 0 Z" style="fill: rgb(255, 204, 170); fill-opacity: 1;"/>
      </g>
    </g>
  </g>
</svg>