<?xml version="1.0" encoding="utf-8"?>
<svg viewBox="0 0 35 31.929" xmlns="http://www.w3.org/2000/svg">
  <defs>
    <clipPath id="clippath5" transform="">
      <path d="M 0 1920 L 1080 1920 L 1080 0 L 0 0 Z" style="fill: none; clip-rule: nonzero;"/>
    </clipPath>
  </defs>
  <g transform="matrix(0.514207, 0, 0, -0.516598, -111.023331, 881.354248)">
    <g style="clip-path: url(#clippath5);" transform="matrix(1, 0, 0, 1, 49.418941, -144.599304)">
      <g transform="translate(188.9551 1810.4019)">
        <path d="M 0 0 C 5.991 -4.841 4.553 -24.068 11.858 -21.255 C 17.017 -19.269 14.388 -7.462 21.319 -0.357 C 29.291 2.236 42.884 -7.193 45.098 -3.176 C 48.884 3.696 30.17 13.729 30.208 15.651 C 30.251 17.799 45.516 29.646 42.958 32.297 C 38.92 36.483 18.265 29.092 15.99 29.328 C 14.028 29.534 -1.621 41.491 -5.192 40.169 C -9.774 38.475 -2.634 21.03 -3.689 19.314 C -4.791 17.523 -24.424 8.716 -22.302 3.927 C -20.349 -0.484 -8.505 2.69 0 0" style="fill: rgb(208, 77, 49); fill-opacity: 1;"/>
      </g>
    </g>
    <g style="clip-path: url(#clippath5);" transform="matrix(1, 0, 0, 1, 49.418941, -144.599304)">
      <g transform="translate(188.9551 1810.4019)">
        <path d="M 0 0 C 5.991 -4.841 4.553 -24.068 11.858 -21.255 C 17.017 -19.269 14.388 -7.462 21.319 -0.357 C 29.291 2.236 42.884 -7.193 45.098 -3.176 C 48.884 3.696 30.17 13.729 30.208 15.651 C 30.251 17.799 45.516 29.646 42.958 32.297 C 38.92 36.483 18.265 29.092 15.99 29.328 C 14.028 29.534 -1.621 41.491 -5.192 40.169 C -9.774 38.475 -2.634 21.03 -3.689 19.314 C -4.791 17.523 -24.424 8.716 -22.302 3.927 C -20.349 -0.484 -8.505 2.69 0 0 Z" style="fill: none; stroke: rgb(48, 48, 48); stroke-opacity: 1; stroke-miterlimit: 0; stroke-width: 1px; stroke-dashoffset: 0px;"/>
      </g>
    </g>
    <g style="clip-path: url(#clippath5);" transform="matrix(1, 0, 0, 1, 49.418941, -144.599304)">
      <g transform="translate(178.8994 1813.8716)">
        <path d="M 0 0 C 9.523 4.765 16.69 5.794 18.236 7.512 C 19.782 9.23 9.543 27.893 9.543 27.893 C 27.472 12.251 22.197 10.902 27.472 12.251 C 32.746 13.602 41.013 19.549 51.231 25.637 C 42.871 17.634 30.951 7.655 31.819 5.142 C 32.686 2.63 42.907 -1.435 52.463 -8.13 C 42.402 -5.587 31.905 1.445 28.559 -2.916 C 25.213 -7.277 25.015 -9.93 22.123 -23.993 C 20.517 -7.854 24.214 -3.528 19.866 -1.02 C 15.517 1.489 10.878 1.604 0 0" style="fill: rgb(228, 153, 130); fill-opacity: 1;"/>
      </g>
    </g>
  </g>
</svg>