<?xml version="1.0" encoding="utf-8"?>
<svg viewBox="0 0 362.414 23.401" xmlns="http://www.w3.org/2000/svg" preserveAspectRatio="none">
  <path style="fill: rgb(255, 221, 85);" d="M 27.752 15.732 C 133.686 -7.548 245.24 -4.991 362.414 23.401 L 0 22.052 C 8.706 19.991 17.957 17.885 27.752 15.732 Z"/>
  <path d="M 46.629 18.927 C 58.605 13.187 98.406 10.43 123.925 7.596 C 116.169 9.627 109.85 11.804 106.562 14.291 C 115.303 18.463 121.845 18.593 129.246 20.301 C 98.547 19.652 76.192 18.09 46.629 18.927 Z" fill="#ffe680" fill-rule="evenodd" style=""/>
  <path d="M 168.328 5.81 C 169.159 8.029 173.51 9.836 178.157 11.608 C 185.872 11.586 190.345 9.034 195.267 6.833 C 196.753 6.193 198.289 5.716 200.727 8.197 C 193.059 14.592 181.996 14.283 175.246 14.165 C 167.083 11.385 163.988 8.803 162.504 5.128 C 168.168 3.861 169.448 4.354 168.329 5.81 Z" fill="#ffe680" fill-rule="evenodd" style=""/>
  <path d="M 308.179 20.377 C 301.551 15.943 289.417 13.113 277.161 10.319 C 258.252 16.664 225.499 17.632 198.94 21.006 C 235.306 20.8 252.228 22.213 308.18 20.377 Z" fill="#ffe680" fill-rule="evenodd" style=""/>
</svg>