<?xml version="1.0" encoding="utf-8"?>
<svg viewBox="373.085 92.277 15.13 38.442" xmlns="http://www.w3.org/2000/svg" preserveAspectRatio="none">
  <path d="m376.43 173.79c-46.154 76.328-87.618 153.27-82.857 237.14 16.509 0.65652 36.834 9.9004 46.429-5-26.88-90.041 22.968-159.86 49.286-235.71z" fill="#8a6649" stroke="#000" stroke-width="1px" transform="matrix(0.157456, 0, 0, 0.157456, 326.919434, 65.474625)"/>
  <path d="m293.57 385.93 7.1429-5 2.1428 3.2143 7.1429-2.8572 2.5 0.71429 13.571-3.2143 0.71428 2.5 7.4466-1.1452" fill="none" stroke="#000" stroke-width="1px" transform="matrix(0.157456, 0, 0, 0.157456, 326.919434, 65.474625)"/>
  <path d="m296.26 362.47 3.3802-2.2475 3.9286 3.9286 10-4.6429 1.4286 3.9286 8.9286-3.9286 1.0714 2.8571 4.6429-1.4286 2.8037 0.60419" fill="none" stroke="#000" stroke-width="1px" transform="matrix(0.157456, 0, 0, 0.157456, 326.919434, 65.474625)"/>
  <path d="m300.55 338.08 8.023-1.7857 2.5 4.6429 2.8571-6.0714 3.9286 6.0714 7.1429-3.9286 3.5714 4.2857 4.6429-0.71428" fill="none" stroke="#000" stroke-width="1px" transform="matrix(0.157456, 0, 0, 0.157456, 326.919434, 65.474625)"/>
  <path d="m305.95 317.78 4.7663-0.77994 2.1428 2.8571 3.9286-2.5s5 8.9286 6.4286 7.8571c1.4286-1.0714 5.3571-7.5 5.3571-7.5l4.2857 5.3572 2.6051-4.2066" fill="none" stroke="#000" stroke-width="1px" transform="matrix(0.157456, 0, 0, 0.157456, 326.919434, 65.474625)"/>
  <path d="m311.23 301.93 7.3434 0.0713 3.9286 2.5 5.3571-3.9286 5.3572 5 4.2857-3.2143 0.24627 5.3127" fill="none" stroke="#000" stroke-width="1px" transform="matrix(0.157456, 0, 0, 0.157456, 326.919434, 65.474625)"/>
  <g stroke="#000" transform="matrix(0.157456, 0, 0, 0.157456, 326.919434, 65.474625)">
    <path d="m318.29 283.65 5.9985 3.3588 4.2857-2.5 3.2143 5.7143 5-3.5714 1.7857 4.6428 4.5026-3.4056" fill="none" stroke-width="1px"/>
    <path d="m323.69 271.09 4.529-0.51319s-1.4286 2.8571 0 2.8571 7.5-4.6429 7.5-4.6429l-1.4286 5 6.4286-1.0714 5 4.2857h0.35714" fill="none" stroke-width="1px"/>
    <path d="m332.43 252.48 4.3571 0.59996s0 4.6428 2.5 4.2857c2.5-0.35714 3.9286-0.71428 3.9286-0.71428l5 3.2143h2.8571l-0.18269 5.2501" fill="none" stroke-width="1px"/>
    <path d="m339.59 238.36 7.1983 0.0778s-2.5 3.9286 0 3.5714c2.5-0.35714 6.7857-1.4286 6.7857-1.4286l0.35714 3.9286 3.9286-1.4286 1.0714 2.5" fill="none" stroke-width="1px"/>
    <path d="m346.47 225.46 4.9586-0.95441 1.0714 3.5714 6.0714-2.1429 1.0714 3.2143 2.8571-1.4286 0.35714 2.8572 2.5 0.35714" fill="none" stroke-width="1px"/>
    <path d="m354.02 211.89 5.2681-0.59812s1.4286 5.3572 2.8572 4.6429c1.4286-0.71429 5.7143-1.7857 5.7143-1.7857l1.0714 3.9286 1.7857 0.35714" fill="none" stroke-width="1px"/>
    <path d="m361.79 198.43h3.2143l5 3.9286 2.5-1.0714 4.9828-0.3629" fill="none" stroke-width="1px"/>
  </g>
</svg>