<?xml version="1.0" encoding="utf-8"?>
<svg viewBox="360.947 98.279 32.535 25.256" xmlns="http://www.w3.org/2000/svg" preserveAspectRatio="none">
  <defs>
    <radialGradient id="l" cx="365.46" cy="204.31" r="103.82" gradientTransform="matrix(1, 0, 0, 0.77724, -602.346863, -21.376099)" gradientUnits="userSpaceOnUse">
      <stop stop-color="#008000" offset="0"/>
      <stop stop-color="#3c9c3c" offset="1"/>
    </radialGradient>
  </defs>
  <g stroke="#000" transform="matrix(0.157456, 0, 0, 0.157456, 414.514984, 89.267799)">
    <path d="M -220.917 112.622 C -239.277 117.342 -252.487 129.782 -267.347 139.762 L -267.347 115.476 C -271.841 125.178 -278.194 133.642 -277.347 146.905 L -299.49 173.334 L -303.061 146.905 C -315.22 162.619 -309.623 178.334 -311.633 194.048 C -314.966 198.36 -318.299 196.281 -321.633 209.048 C -354.303 137.618 -308.283 120.068 -242.353 101.198 L -252.353 99.055 L -241.639 91.912 L -261.639 94.769 L -279.496 97.626 L -270.21 87.626 L -284.496 99.769 L -305.925 103.341 L -301.639 85.484 L -314.496 102.627 L -340.21 118.341 C -339.453 48.37 -250.469 79.818 -224.5 96.198 L -232.35 86.908 L -223.065 82.622 L -239.494 83.336 L -250.923 79.765 L -244.494 74.051 L -260.208 78.336 L -269.494 71.908 L -260.922 65.479 L -279.493 67.622 C -253.158 44.494 -222.57 62.92 -215.207 94.051 L -215.922 79.765 C -209.338 83.598 -199.837 86.598 -205.922 94.051 C -166.562 87.701 -155.291 87.728 -150.922 123.337 L -162.362 115.487 L -167.362 102.63 L -167.362 113.344 L -174.504 111.201 L -182.364 98.351 L -182.364 107.637 L -202.364 104.066 C -116.938 133.071 -135.221 141.477 -135.221 203.352 L -145.931 181.922 L -142.361 152.642 L -148.79 174.071 L -155.219 160.5 L -158.076 137.643 L -160.219 151.929 L -171.648 142.643 L -175.218 124.783 L -177.358 136.923 L -200.928 115.493 C -168.947 159.689 -161.637 176.615 -193.071 217.633 L -195.928 184.062 C -189.256 175.825 -185.513 169.145 -188.071 159.062 L -200.928 175.491 L -203.785 155.491 C -201.384 150.035 -197.022 146.539 -198.07 137.634 L -209.499 143.348 Z" fill="url(#l)" stroke-width="1px"/>
  </g>
</svg>