<?xml version="1.0" encoding="utf-8"?>
<svg viewBox="20.249 -152.976 362.016 26.934" xmlns="http://www.w3.org/2000/svg" preserveAspectRatio="none">
  <path d="M -150.873 -611.612 C -123.611 -624.678 -33.009 -630.955 25.08 -637.406 C 7.426 -632.783 -6.96 -627.826 -14.445 -622.164 C 5.453 -612.667 20.346 -612.372 37.194 -608.485 C -32.688 -609.961 -83.578 -613.518 -150.873 -611.612 Z" fill="#ffe680" fill-rule="evenodd" style="" transform="matrix(0.439297, 0, 0, 0.439297, 119.933861, 137.933853)"/>
  <path d="M 126.159 -641.471 C 128.05 -636.42 137.954 -632.307 148.533 -628.273 C 166.094 -628.322 176.276 -634.131 187.482 -639.142 C 190.864 -640.6 194.361 -641.685 199.911 -636.037 C 182.455 -621.479 157.272 -622.183 141.905 -622.451 C 123.323 -628.781 116.279 -634.658 112.901 -643.024 C 125.793 -645.908 128.707 -644.786 126.16 -641.472 Z" fill="#ffe680" fill-rule="evenodd" style="" transform="matrix(0.439297, 0, 0, 0.439297, 119.933861, 137.933853)"/>
  <path d="M 444.51 -608.311 C 429.422 -618.404 401.8 -624.846 373.901 -631.206 C 330.857 -616.763 256.3 -614.56 195.843 -606.88 C 278.624 -607.349 317.144 -604.132 444.513 -608.311 Z" fill="#ffe680" fill-rule="evenodd" style="" transform="matrix(0.439297, 0, 0, 0.439297, 119.933861, 137.933853)"/>
</svg>