<?xml version="1.0" encoding="utf-8"?>
<svg viewBox="0 0 1441.126 705.411" xmlns="http://www.w3.org/2000/svg">
  <defs>
    <linearGradient id="gradient-2" gradientUnits="userSpaceOnUse" x1="1342.086" y1="528.662" x2="1342.086" y2="567.025" gradientTransform="matrix(1.000179, 0, 0, 1, 0.468838, 4.80718)">
      <stop offset="0" style="stop-color: rgba(57, 61, 123, 1)"/>
      <stop offset="1" style="stop-color: rgba(25, 27, 53, 1)"/>
    </linearGradient>
    <linearGradient id="gradient-1" gradientUnits="userSpaceOnUse" x1="1175.839" y1="532.665" x2="1175.839" y2="559.849" gradientTransform="matrix(1.000179, 0, 0, 1, 0.468838, 4.80718)">
      <stop offset="0" style="stop-color: rgba(57, 61, 123, 1)"/>
      <stop offset="1" style="stop-color: rgba(25, 27, 53, 1)"/>
    </linearGradient>
    <linearGradient id="gradient-0" gradientUnits="userSpaceOnUse" x1="110.425" y1="509.401" x2="110.425" y2="537.74" gradientTransform="matrix(1.000179, 0, 0, 1, 0.468838, 4.80718)">
      <stop offset="0" style="stop-color: rgba(57, 61, 123, 1)"/>
      <stop offset="1" style="stop-color: rgba(25, 27, 53, 1)"/>
    </linearGradient>
    <linearGradient id="gradient-3" gradientUnits="userSpaceOnUse" x1="300.491" y1="545.829" x2="300.491" y2="571.823" gradientTransform="matrix(1.000179, 0, 0, 1, 0.468838, 4.80718)">
      <stop offset="0" style="stop-color: rgba(57, 61, 123, 1)"/>
      <stop offset="1" style="stop-color: rgba(25, 27, 53, 1)"/>
    </linearGradient>
  </defs>
  <rect width="1440.257" height="700" style="fill: rgb(88, 213, 244);" x="0.755"/>
  <path d="M 0.469 646.517 L 0.469 189.415 C 18.216 190.07 33.81 206.956 59.599 210.581 C 74.813 212.72 129.223 186.539 138.014 192.868 C 153.699 204.16 151.977 233.62 166.045 244.586 C 180.186 255.61 198.35 250.286 213.49 257.306 C 227.545 263.823 215.23 301.64 221.912 320.883 C 228.061 338.592 258.554 328.271 264.683 341.286 C 291.436 398.089 218.961 413.842 254.366 466.504 C 279.957 504.569 310.742 507.781 344.392 514.133 C 355.097 516.154 363.983 517.357 374.669 515.381 C 378.15 514.738 385.529 515.703 388.953 514.746 C 389.374 519.938 390.783 528.69 390.633 532.986 C 390.218 544.761 387.708 568.829 396.262 575.407 C 419.538 593.308 447.349 610.144 445.898 646.517 Z M 388.953 514.746 C 388.67 511.285 388.826 509.406 390.177 511.485 C 391.373 513.328 390.648 514.273 388.953 514.746 Z" style="fill: rgb(65, 121, 163);"/>
  <path d="M 1440.841 593.09 L 1080.107 593.09 C 1080.688 589.678 1081.67 586.281 1081.077 583.37 C 1077.351 565.102 1082.094 538.557 1094.497 523.584 C 1102.567 513.841 1117.885 511.97 1126.863 503.109 C 1140.652 489.502 1119.445 456.042 1136.064 442.238 C 1143.642 435.943 1172.42 443.66 1179.535 446.175 C 1183.274 447.497 1192.81 450.851 1196.19 446.189 C 1203.073 436.696 1194.545 425.187 1199.5 416.383 C 1210.584 396.691 1230.613 398.698 1244.585 383.32 C 1256.602 370.093 1244.823 345.144 1247.706 330.281 C 1248.903 324.104 1256.407 314.236 1256.128 309.107 C 1256.046 307.597 1263.243 305.412 1264.196 305.067 C 1272.432 302.084 1283.037 297.656 1289.363 291.47 C 1294.08 286.855 1289.975 275.935 1293.728 270.273 C 1297.133 265.14 1306.635 268.16 1308.926 265.87 C 1310.046 264.75 1306.155 263.996 1305.54 262.536 C 1304.34 259.684 1301.782 250.818 1305.286 248.426 C 1308.007 246.568 1315.469 240.256 1319.31 242.028 C 1326.713 245.444 1337.704 256.444 1345.858 246.625 C 1354.691 235.988 1330.301 229.696 1338.115 215.918 C 1338.485 215.266 1344.101 221.651 1345.623 222.528 C 1349.45 224.736 1353.451 221.043 1355.893 218.955 C 1364.558 211.544 1347.242 193.961 1353.394 185.302 C 1355.668 182.1 1365.728 185.95 1369.228 182.539 C 1372.231 179.613 1366.37 168.275 1370.657 163.204 C 1373.44 159.914 1386.137 160.911 1390.419 161.804 C 1392.428 162.223 1395.849 166.946 1395.743 164.897 C 1395.579 161.719 1411.237 161.697 1412.346 162.294 C 1414.838 163.636 1418.49 167.79 1422.145 167.061 C 1432.173 165.061 1431.554 155.959 1440.841 154.392 Z" style="fill: rgb(65, 121, 163);"/>
  <path d="M 1340.655 535.468 C 1337.808 536.977 1333.808 542.305 1330.797 542.468 C 1326.023 542.727 1318.958 538.807 1314.513 541.456 C 1311.405 543.307 1314.19 547.719 1312.283 549.55 C 1310.478 551.281 1306.154 550.52 1305.083 553.307 C 1302.259 560.659 1311.53 565.894 1316.809 567.98 C 1327.775 572.312 1352.499 573.137 1363.767 569.704 C 1377.634 565.48 1364.939 559.322 1366.744 557.516 C 1368.266 555.994 1383.957 541.011 1380.546 539.855 C 1376.788 538.582 1374.059 535.394 1370.58 533.937 C 1366.842 532.373 1361.666 535.188 1358.054 535.723 C 1352.318 536.572 1343.711 533.845 1338.096 533.845" style="stroke: rgb(57, 61, 123); stroke-width: 0px; fill: url(#gradient-2);"/>
  <path d="M 1151.465 564.656 C 1141.37 562.988 1136.399 553.761 1147.29 548.317 C 1148.68 547.622 1153.133 548.977 1155.165 548.274 C 1160.164 546.545 1164.734 539.014 1168.688 537.884 C 1174.124 536.331 1189.647 539.563 1195.743 541.061 C 1198.276 541.684 1211.888 541.709 1211.888 545.205 C 1211.888 564.297 1179.39 561.196 1166.029 561.764 C 1161.716 561.948 1151.967 564.079 1149.911 562.518" style="stroke: rgb(57, 61, 123); stroke-width: 0px; fill: url(#gradient-1);"/>
  <path d="M 59.204 530.576 C 63.523 519.908 71.315 525.25 78.691 523.592 C 88.667 521.35 97.231 514.948 107.711 514.211 C 109.716 514.07 109.726 518.226 112.486 518.057 C 117.455 517.752 122.623 513.298 127.81 514.75 C 131.944 515.907 134.635 522.44 138.175 524.166 C 143.502 526.762 153.603 523.717 159.642 523.616 C 162.498 523.568 161.636 530.119 161.86 531.673 C 162.039 532.916 163.214 535.322 162.81 536.556 C 160.65 543.149 139.623 539.868 135.226 540.185 C 119.04 541.352 97.876 544.369 81.767 541.003 C 75.444 539.682 69.596 536.784 63.394 535.195 C 62.143 534.874 60.333 530.765 58.932 531.102" style="stroke: rgb(0, 0, 0); stroke-width: 0px; fill: url(#gradient-0);"/>
  <path d="M 283.704 551.498 C 283.109 552.525 280.363 559.075 278.458 559.325 C 276.703 559.556 268.014 557.841 267.702 559.553 C 265.693 570.587 271.611 566.318 276.966 568.95 C 279.723 570.306 282.078 575.608 284.492 576.287 C 292.887 578.647 304.507 568.15 312.351 565.742 C 318.052 563.992 323.022 571.046 328.245 570.697 C 346.563 569.473 320.573 557.719 317.254 556.998 C 312.854 556.042 308.134 556.244 303.673 555.645 C 298.358 554.932 290.407 550.636 282.869 550.636" style="stroke: rgb(57, 61, 123); stroke-width: 0px; fill: url(#gradient-3);"/>
  <path d="M 1441.126 705.411 L 0 705.411 L 0 529.057 C 60.948 523.62 134.743 529.488 221.389 546.659 C 305.635 563.356 399.151 584.612 501.937 610.429 C 560.467 625.131 622.524 621.963 688.103 600.925 C 768.142 575.247 852.59 565.35 941.441 571.235 C 1011.62 575.883 1081.957 571.43 1152.448 557.877 C 1193.751 549.935 1236.912 547.335 1281.924 550.074 C 1335.564 553.337 1388.631 548.421 1441.126 535.323 L 1441.126 705.411 Z" style="fill: rgb(229, 166, 45);"/>
  <path style="stroke: rgb(0, 0, 0); stroke-width: 0px; fill: rgb(234, 184, 106);" d="M 101.816 565.112 C 92.989 575.118 65.713 619.386 85.712 630.272 C 118.001 647.849 154.544 649.161 191.293 653.319 C 211.277 655.581 231.08 661.723 251.756 659.539 C 280.996 656.452 314.592 647.519 344.402 652.996 C 394.95 662.282 439.238 686.737 491.727 690.286 C 521.546 692.303 563.389 693.019 586.331 671.6 C 591.826 666.469 617.762 657.714 623.957 650.837 C 629.2 645.017 646.112 623.643 638.707 625.064 C 633.177 626.125 591.077 653.279 574.363 653.843 C 565.014 654.159 554.93 654.752 545.96 656.322 C 520.182 660.837 489.215 666.41 463.053 662.116 C 434.903 657.495 413.715 635.993 384.367 632.738 C 341.204 627.952 303.325 634.98 261.2 638.317 C 227.756 640.968 194.527 633.457 162.012 627.42 C 137.313 622.835 102.664 605.944 102.664 576.56 C 102.664 570.035 97.986 562.073 104.189 557.728"/>
  <path d="M 921.002 613.719 C 919.689 615.227 910.929 619.979 908.975 620.485 C 900.79 622.604 887.746 626.917 880.2 624.751 C 874.386 623.082 885.108 610.773 882.224 605.673 C 881.547 604.476 859.172 593.253 871.346 587.876 C 881.905 583.213 913.487 591.459 924.837 592.305 C 947.971 594.026 969.426 586.476 992.908 591.798 C 1038.883 602.218 1071.087 638.164 1117.263 649.686 C 1170.804 663.043 1234.034 644.469 1283.912 672.156 C 1298.435 680.216 1301.881 692.599 1299.747 705.354 L 1231.436 705.354 C 1224.813 695.909 1216.383 685.937 1204.905 679.799 C 1166.055 659.019 1112.041 670.106 1078.324 650.56 C 1058.113 638.843 1015.618 645.779 991.181 642.579 C 978.896 640.969 973.041 629.91 961.907 625.335 C 949.803 620.36 936.462 618.538 921.451 615.005 Z" style="fill: rgb(208, 151, 40);"/>
  <path stroke="rgb(255,0,0)" d="M 726.125 632.031 C 731.154 634.541 737.861 635.378 746.246 634.541 C 747.084 632.031 750.018 631.194 755.049 632.031 C 756.726 632.868 758.403 634.541 760.079 637.05 C 761.755 643.744 760.499 647.508 756.308 648.345 C 750.438 652.528 742.052 653.365 731.154 650.855 C 726.125 650.018 722.352 648.345 719.835 645.836 C 719.835 642.489 719.417 640.397 718.577 639.56 C 719.417 637.05 721.094 634.96 723.61 633.286 C 724.448 633.286 725.286 632.868 726.125 632.031 Z" style="stroke: rgb(129, 151, 57); stroke-width: 0px; fill: rgb(208, 151, 40);"/>
  <path stroke="rgb(255,0,0)" d="M 1256.246 573.728 C 1282.538 577.641 1317.601 578.945 1361.426 577.641 C 1365.808 573.728 1381.145 572.423 1407.44 573.728 C 1416.205 575.032 1424.971 577.641 1433.737 581.551 C 1442.498 591.985 1435.929 597.852 1414.014 599.156 C 1383.335 605.677 1339.509 606.981 1282.538 603.068 C 1256.246 601.765 1236.523 599.156 1223.374 595.245 C 1223.374 590.028 1221.183 586.768 1216.799 585.464 C 1221.183 581.551 1229.948 578.292 1243.097 575.684 C 1247.48 575.684 1251.862 575.032 1256.246 573.728 Z" style="stroke: rgb(129, 151, 57); stroke-width: 0px; fill: rgb(234, 184, 106);"/>
  <path stroke="rgb(255,0,0)" d="M 39.949 550.127 C 52.523 550.964 63.004 553.891 71.387 558.912 C 73.064 556.401 76.418 555.565 81.448 556.401 C 83.124 557.238 84.801 558.912 86.479 561.422 C 87.317 566.441 86.899 569.788 85.22 571.461 C 81.028 575.644 73.902 577.317 63.842 576.48 C 56.296 568.951 46.236 564.767 33.659 563.931 C 33.659 560.585 33.241 558.493 32.403 557.656 C 33.241 555.146 34.918 553.055 37.433 551.382 C 38.271 551.382 39.109 550.964 39.949 550.127 Z" style="stroke: rgb(129, 151, 57); fill: rgb(208, 151, 40); stroke-width: 0px;"/>
  <ellipse style="fill: rgb(208, 151, 40);" cx="50.548" cy="654.904" rx="11.2" ry="5.005"/>
  <ellipse style="fill: rgb(208, 151, 40);" cx="363.49" cy="605.03" rx="11.2" ry="5.005"/>
  <ellipse style="fill: rgb(208, 151, 40);" cx="840.484" cy="631.869" rx="11.2" ry="5.005"/>
  <ellipse style="fill: rgb(208, 151, 40);" cx="918.601" cy="668.764" rx="12.641" ry="6.851"/>
  <ellipse style="fill: rgb(208, 151, 40);" cx="1018.563" cy="673.122" rx="11.434" ry="7.459"/>
  <ellipse style="fill: rgb(208, 151, 40);" cx="390.97" cy="664.095" rx="11.2" ry="5.005"/>
  <ellipse style="fill: rgb(234, 184, 106);" cx="1121.706" cy="616.207" rx="14.212" ry="6.658"/>
  <ellipse style="fill: rgb(234, 184, 106);" cx="1225.245" cy="635.418" rx="15.691" ry="7.246"/>
  <ellipse style="fill: rgb(234, 184, 106);" cx="1411.74" cy="645.855" rx="15.411" ry="7.805"/>
  <ellipse style="fill: rgb(234, 184, 106);" cx="207.486" cy="573.777" rx="17.134" ry="8.681"/>
</svg>